<svg width="20" height="20" viewBox="0 0 20 20" fill="none" xmlns="http://www.w3.org/2000/svg">
<rect width="20" height="20" fill="#324332"/>
<path d="M20.0001 10.0001C20.0001 9.71443 19.9874 9.43181 19.964 9.1522L15.4255 4.61377L4.61377 15.4255L9.15224 19.964C9.43181 19.9874 9.71443 20.0001 10.0001 20.0001C15.5229 20.0001 20.0001 15.5229 20.0001 10.0001Z" fill="#263426"/>
<path d="M9.99999 2.34375C5.79207 2.34375 2.34375 5.79207 2.34375 9.99999C2.34375 14.2079 5.79207 17.6562 9.99999 17.6562C14.2079 17.6562 17.6562 14.2079 17.6562 9.99999C17.6562 5.79207 14.2079 2.34375 9.99999 2.34375Z" fill="#FF3636"/>
<path d="M17.6562 9.99999C17.6562 14.2079 14.2079 17.6562 10 17.6562V2.34375C14.2079 2.34375 17.6562 5.79207 17.6562 9.99999Z" fill="#F40000"/>
<path d="M11.265 9.99998L13.8042 12.5391L12.5391 13.8042L9.99998 11.265L7.46084 13.8042L6.1958 12.5391L8.73494 9.99998L6.1958 7.46084L7.46084 6.1958L9.99998 8.73494L12.5391 6.1958L13.8042 7.46084L11.265 9.99998Z" fill="#E7E7E7"/>
<path d="M11.265 9.99998L13.8042 12.5391L12.5391 13.8042L10 11.265V8.73494L12.5391 6.1958L13.8042 7.46084L11.265 9.99998Z" fill="#D3D3D8"/>
<rect width="20" height="20" fill="#324332"/>
<path d="M19.9997 10C19.9997 9.63746 19.9799 9.27953 19.9422 8.92695L14.0231 3.00781L4.49658 15.1953L9.27494 19.9737C9.51432 19.9908 9.75592 20 9.99967 20C15.5225 20 19.9997 15.5229 19.9997 10Z" fill="#263426"/>
<path d="M15.5028 7.61719H4.49658V15.1953H15.5028V7.61719Z" fill="#FFDC00"/>
<path d="M15.5029 7.61719H9.9975L9.99609 15.1953H15.5029V7.61719Z" fill="#FFC000"/>
<path d="M15.5028 7.61719L9.99596 13.0042L4.49658 7.61719L9.99967 3.00781L15.5028 7.61719Z" fill="#AFB4C8"/>
<path d="M15.5029 7.61719L9.9998 3.00781L9.99609 13.0042L15.5029 7.61719Z" fill="#9196AA"/>
<path d="M14.0234 9.0666L9.99629 13.0042L5.97656 9.0666V3.00781H14.0234V9.0666Z" fill="white"/>
<path d="M9.9998 3.00781L9.99609 13.0042L14.0232 9.0666V3.00781H9.9998Z" fill="#E9EDF5"/>
<path d="M9.53287 9.58531L7.19189 7.24438L8.29678 6.13953L9.53287 7.37563L12.5042 4.4043L13.609 5.50914L9.53287 9.58531Z" fill="#FFDC00"/>
</svg>
