<svg width="20" height="20" viewBox="0 0 20 20" fill="none" xmlns="http://www.w3.org/2000/svg">
<rect width="20" height="20" fill="#324332"/>
<path d="M10.0019 20.0004C15.5239 19.9994 20.0001 15.5226 20.0001 10.0004C20.0001 9.93613 19.9989 9.87226 19.9977 9.80836L15.9169 5.72758L15.0254 6.49199L11.215 2.68164L5.26172 15.2601L10.0019 20.0004Z" fill="#263426"/>
<path d="M14.6006 4.75977L15.9184 5.72771L14.364 7.84409L13.0461 6.87615L14.6006 4.75977Z" fill="#FF7045"/>
<path d="M8.78516 2.68164H11.2151V6.5809H8.78516V2.68164Z" fill="#FF8257"/>
<path d="M10 2.68164H11.215V6.5809H10V2.68164Z" fill="#FF7045"/>
<path d="M9.99998 17.3188C13.5798 17.3188 16.4819 14.4168 16.4819 10.8369C16.4819 7.25703 13.5798 4.35498 9.99998 4.35498C6.42012 4.35498 3.51807 7.25703 3.51807 10.8369C3.51807 14.4168 6.42012 17.3188 9.99998 17.3188Z" fill="#FF432E"/>
<path d="M10 4.35498V17.3188C13.5799 17.3188 16.4819 14.4167 16.4819 10.8369C16.4819 7.25697 13.5799 4.35498 10 4.35498Z" fill="#F24500"/>
<path d="M10 15.9776C12.8391 15.9776 15.1407 13.6761 15.1407 10.837C15.1407 7.99784 12.8391 5.69629 10 5.69629C7.16093 5.69629 4.85938 7.99784 4.85938 10.837C4.85938 13.6761 7.16093 15.9776 10 15.9776Z" fill="white"/>
<path d="M10 5.69629V15.9776C12.8391 15.9776 15.1407 13.6761 15.1407 10.8369C15.1407 7.99785 12.8391 5.69629 10 5.69629Z" fill="#E9EDF5"/>
<path d="M9.27543 11.1579C9.61074 10.8226 13.6001 8.04736 13.6001 8.04736C13.6001 8.04736 10.8249 12.0368 10.4896 12.3721C10.1543 12.7074 9.6107 12.7074 9.27539 12.3721C8.94008 12.0368 8.94012 11.4931 9.27543 11.1579Z" fill="#6E6E6E"/>
<path d="M9.26758 12.3636C9.27027 12.3663 9.27254 12.3694 9.27531 12.3721C9.61063 12.7074 10.1542 12.7074 10.4895 12.3721C10.8248 12.0368 13.6 8.04736 13.6 8.04736L9.26758 12.3636Z" fill="#595959"/>
</svg>
