<svg width="40" height="40" viewBox="0 0 40 40" fill="none" xmlns="http://www.w3.org/2000/svg">
<rect x="1.5" y="1.5" width="37" height="37" rx="18.5" fill="#FAFAFA" stroke="#C5E1DB" stroke-width="3"/>
<mask id="mask0" mask-type="alpha" maskUnits="userSpaceOnUse" x="1" y="1" width="38" height="38">
<rect x="2.7" y="2.69995" width="34.6" height="34.6" rx="17.3" fill="white" stroke="#C5E1DB" stroke-width="3"/>
</mask>
<g mask="url(#mask0)">
<path d="M22.5712 29.9153C22.498 29.9153 22.4247 29.9153 22.3515 29.9397H22.3027L22.1562 29.9641L22.0098 29.9885L21.8389 30.0129L21.7413 30.0373H21.6681H21.5948H21.5216C21.3263 30.0617 21.0823 30.0861 20.8626 30.1106C20.7405 30.1106 20.6185 30.135 20.5209 30.135H20.4232H20.3744C20.3012 30.135 20.2279 30.1594 20.1303 30.1594C19.9839 30.1594 19.813 30.1594 19.6665 30.1594H19.5445H19.4225C19.3492 30.1594 19.276 30.1594 19.2028 30.1594C19.154 30.1594 19.1051 30.1594 19.0563 30.1594H18.9343C18.861 30.1594 18.7634 30.1594 18.6902 30.1594C18.5193 30.1594 18.2752 30.135 18.0311 30.1106L18.0556 30.135L17.9823 30.1106H17.9091L17.7626 30.0861L17.6162 30.0617C17.5674 30.0617 17.4942 30.0373 17.4453 30.0373C17.3965 30.0373 17.3965 30.0373 17.3721 30.0373C17.2501 30.0373 17.128 30.1106 17.0548 30.2082C17.0304 30.2326 17.006 30.2814 16.9816 30.3302C16.9572 30.4035 16.9572 30.4523 16.9327 30.5011C16.9327 30.5499 16.9327 30.5743 16.9083 30.5987V30.6475L16.8595 30.672C16.8107 30.672 16.7863 30.6964 16.7375 30.6964L16.6643 30.7208C16.5422 30.7452 16.3958 30.794 16.2737 30.8428C16.1517 30.8916 16.054 30.9893 15.9564 31.0625C15.9076 31.1113 15.8588 31.1601 15.8099 31.209C15.7855 31.2334 15.7611 31.2578 15.7611 31.2822C15.7367 31.3066 15.7367 31.331 15.7123 31.3554C15.7123 31.3798 15.6879 31.4042 15.6879 31.4286V31.453C15.6879 31.4774 15.6879 31.5019 15.6879 31.5263C15.6879 31.5507 15.6879 31.5507 15.6879 31.5751C15.6879 31.6727 15.7367 31.7459 15.8343 31.7459C15.8832 31.7459 15.932 31.6971 15.9564 31.6483C15.9808 31.6727 16.0296 31.6971 16.054 31.7215C16.1028 31.7459 16.1761 31.7704 16.2249 31.7948C16.4202 31.8436 16.6154 31.8924 16.7863 31.9168H16.8107H16.8595C16.9327 31.9168 16.9816 31.9412 17.0548 31.9412C17.2012 31.9656 17.3477 31.9656 17.4942 31.99C17.665 32.0144 17.8115 32.0144 17.9823 32.0388H18.0067C18.202 32.0633 18.4217 32.0877 18.6658 32.1121H18.8122C18.8855 32.1121 18.9587 32.1121 19.0563 32.1365H19.2028C19.276 32.1365 19.3492 32.1365 19.4225 32.1365C19.5445 32.1365 19.6665 32.1365 19.813 32.1365C19.935 32.1365 20.0571 32.1365 20.1791 32.1365C20.3012 32.1365 20.4232 32.1365 20.5453 32.1365H20.6429H20.7405C20.7893 32.1365 20.8382 32.1365 20.887 32.1365H20.9602C21.009 32.1365 21.0823 32.1365 21.1311 32.1365C21.1799 32.1365 21.2531 32.1365 21.3019 32.1365C21.3508 32.1365 21.3752 32.1365 21.424 32.1365H21.5216C21.5948 32.1365 21.6437 32.1365 21.7169 32.1121H21.8877C21.961 32.1121 22.0342 32.1121 22.1074 32.0877C22.2051 32.0877 22.3027 32.0633 22.4003 32.0633H22.4492C22.5468 32.0389 22.6444 32.0388 22.7421 32.0388C22.8153 32.0388 22.9129 32.0144 22.9861 32.0144H23.035H23.0838L23.3035 31.99H23.3523L23.7184 31.9412C23.816 31.9168 23.9381 31.9168 24.0357 31.9168C24.0601 31.9168 24.109 31.9168 24.1334 31.9168H24.1822C24.2554 31.9168 24.3042 31.8924 24.3286 31.868C24.3775 31.8436 24.4019 31.7948 24.4019 31.7704C24.4019 31.7215 24.4019 31.6971 24.4019 31.6483C24.4019 31.6239 24.3774 31.5751 24.353 31.5507C24.3042 31.453 24.231 31.3798 24.1578 31.3066L24.0845 31.2334C24.0357 31.1845 23.9625 31.1357 23.9137 31.0869C23.8405 31.0381 23.7672 30.9893 23.694 30.9405C23.6452 30.916 23.5964 30.8916 23.572 30.8672C23.5475 30.8428 23.4987 30.8428 23.4743 30.8184L23.4255 30.794C23.3767 30.7696 23.3279 30.7696 23.2791 30.7452H23.2546L23.157 30.7208C23.1326 30.7208 23.1326 30.6964 23.1326 30.6964V30.672C23.1326 30.6475 23.1326 30.6231 23.1082 30.6231C23.0838 30.5987 23.0838 30.5499 23.0594 30.5255L23.035 30.5011C23.035 30.4767 23.0106 30.4279 22.9861 30.3791C22.9861 30.3546 22.9617 30.3546 22.9617 30.3302C22.9617 30.3302 22.9617 30.3058 22.9373 30.3058C22.9129 30.257 22.9129 30.2326 22.8885 30.2082C22.8641 30.1838 22.8153 30.1594 22.7665 30.1594C22.7421 30.1594 22.7176 30.1594 22.6932 30.135H22.6688C22.62 29.9153 22.5956 29.9153 22.5712 29.9153Z" fill="#3E768C"/>
<path d="M19.862 19.9077C19.8131 20.103 19.7399 20.2738 19.6423 20.4447C19.5691 20.64 19.4714 20.8352 19.3982 21.0549C19.325 21.2502 19.2517 21.4455 19.2273 21.6407C19.2029 21.7384 19.2029 21.836 19.2029 21.9092C19.2029 22.0069 19.2029 22.0801 19.2273 22.1777C19.2517 22.3242 19.325 22.4706 19.4226 22.5683C19.5202 22.6659 19.6423 22.7147 19.7887 22.7635C19.862 22.7879 19.9352 22.7879 20.0084 22.8124C20.0816 22.8124 20.1549 22.8124 20.2281 22.8124C20.3745 22.8124 20.5454 22.7879 20.6919 22.7879C20.7163 22.7879 20.7651 22.7879 20.7895 22.7391C20.8139 22.7147 20.8139 22.6903 20.8139 22.6415C20.8139 22.6171 20.7895 22.5683 20.7895 22.5439C20.7651 22.5194 20.7407 22.495 20.6919 22.5194C20.4478 22.5439 20.1793 22.5683 19.9352 22.5439H19.9596C19.8864 22.5439 19.8131 22.5194 19.7155 22.495C19.6667 22.4706 19.6423 22.4462 19.6179 22.4218C19.5935 22.3974 19.5691 22.373 19.5447 22.3486C19.5202 22.3242 19.5202 22.2998 19.4958 22.2509C19.4714 22.2021 19.4714 22.1533 19.447 22.1045C19.447 22.0069 19.447 21.9092 19.447 21.8116C19.4958 21.4943 19.6179 21.177 19.7399 20.884C19.862 20.5667 20.0084 20.2738 20.1061 19.9565C20.1305 19.8833 20.0816 19.8101 20.0084 19.8101H19.984C19.9352 19.8101 19.8864 19.8589 19.862 19.9077ZM19.4714 21.7872C19.4714 21.7872 19.4714 21.8116 19.4714 21.7872C19.4714 21.8116 19.4714 21.7872 19.4714 21.7872Z" fill="#2C2C2C"/>
<path d="M16.8841 21.9091C17.2258 21.9091 17.4943 21.5429 17.4943 21.0547C17.4943 20.591 17.2258 20.2004 16.8841 20.2004C16.5423 20.2004 16.2738 20.5666 16.2738 21.0547C16.2982 21.5185 16.5667 21.9091 16.8841 21.9091Z" fill="#2C2C2C"/>
<path d="M23.3278 21.7626C22.9861 21.7626 22.7176 21.3964 22.7176 20.9083C22.7176 20.4445 22.9861 20.054 23.3278 20.054C23.6695 20.054 23.938 20.4201 23.938 20.9083C23.9136 21.3964 23.6451 21.7626 23.3278 21.7626Z" fill="#2C2C2C"/>
<path d="M16.8352 18.0769C16.7376 18.0769 16.6399 18.0769 16.5423 18.1013C16.4447 18.1257 16.3226 18.1501 16.225 18.1745C15.8588 18.2722 15.5171 18.4919 15.273 18.7848C15.2242 18.8336 15.2242 18.9068 15.2242 18.98C15.2242 19.0533 15.273 19.1021 15.3218 19.1509C15.3707 19.1997 15.4439 19.1997 15.5171 19.1997C15.5903 19.1997 15.6392 19.1509 15.688 19.1021C15.688 19.1021 15.688 19.1021 15.7124 19.0777C15.81 18.98 15.9077 18.9068 16.0297 18.8336C16.1517 18.7604 16.2982 18.7115 16.4447 18.6627C16.5667 18.6383 16.6887 18.6139 16.8108 18.6139C16.9084 18.6139 17.0305 18.6139 17.1281 18.6383C17.1525 18.6383 17.1769 18.6627 17.2013 18.6627C17.3234 18.7115 17.4698 18.6627 17.5186 18.5163C17.5675 18.3942 17.5186 18.2234 17.3722 18.1989C17.2013 18.1013 17.0305 18.0769 16.8352 18.0769ZM16.4447 18.6383H16.4202C16.4202 18.6383 16.4202 18.6383 16.4447 18.6383ZM15.7368 19.0044L15.7124 19.0289C15.7124 19.0289 15.7368 19.0289 15.7368 19.0044Z" fill="#2C2C2C"/>
<path d="M23.2057 17.9304C23.3033 17.9304 23.4009 17.9304 23.4986 17.9548C23.5962 17.9792 23.7182 18.0036 23.8159 18.0281C24.182 18.1257 24.5237 18.3454 24.7678 18.6383C24.8166 18.6871 24.8166 18.7603 24.8166 18.8335C24.8166 18.9068 24.7678 18.9556 24.719 19.0044C24.6702 19.0532 24.597 19.0532 24.5237 19.0532C24.4505 19.0532 24.4017 19.0044 24.3529 18.9556C24.3529 18.9556 24.3529 18.9556 24.3285 18.9312C24.2308 18.8335 24.1332 18.7603 24.0112 18.6871C23.8891 18.6139 23.7427 18.565 23.5962 18.5162C23.4742 18.4918 23.3521 18.4674 23.2301 18.4674C23.1324 18.4674 23.0104 18.4674 22.9128 18.4918C22.8883 18.4918 22.8639 18.5162 22.8395 18.5162C22.7175 18.565 22.571 18.5162 22.5222 18.3698C22.4734 18.2477 22.5222 18.0769 22.6687 18.0525C22.8395 17.9792 23.0104 17.9304 23.2057 17.9304ZM23.5962 18.4918H23.6206C23.6206 18.5162 23.5962 18.4918 23.5962 18.4918ZM24.2796 18.8824L24.3041 18.9068C24.3041 18.9068 24.3041 18.8824 24.2796 18.8824Z" fill="#2C2C2C"/>
<path d="M19.4957 6.80005H19.4225C18.9343 6.80005 18.4217 6.84887 17.8847 6.97091C17.3477 7.09295 16.8108 7.26382 16.2738 7.5079C15.7612 7.72758 15.273 8.02049 14.8336 8.38662C14.3943 8.72835 14.0281 9.11889 13.7108 9.58266C13.3935 10.022 13.1738 10.5346 13.0518 11.0716C12.9786 11.3401 12.9786 11.633 12.9542 11.9259C12.9542 12.0724 12.9297 12.2432 12.9297 12.3897H12.9053C12.7345 12.3897 12.5636 12.4141 12.4172 12.4385C12.2219 12.4873 12.051 12.5361 11.8802 12.6338C11.5873 12.8046 11.3188 13.0487 11.0991 13.3904C10.9038 13.6833 10.7818 14.0495 10.6841 14.4888C10.6109 14.855 10.5621 15.2943 10.5377 15.7581C10.5377 16.1486 10.5621 16.5392 10.5865 16.9541C10.6353 17.3203 10.6841 17.6864 10.7574 18.0525C10.8306 18.3943 10.9282 18.7116 11.0503 19.0533C11.3188 19.7611 11.5873 20.2737 11.9534 20.6887C11.8802 20.7863 11.7825 20.9084 11.7093 21.0304C11.6117 21.2013 11.514 21.3965 11.4652 21.6162C11.3432 22.0556 11.3676 22.4949 11.514 22.8611C11.5384 22.9343 11.5873 23.0319 11.6361 23.1052C11.6849 23.1784 11.7337 23.2516 11.7825 23.3248C11.929 23.4957 12.0998 23.6422 12.3195 23.7886C12.5392 23.9107 12.7833 24.0083 13.0518 24.0571C13.1494 24.0815 13.2715 24.0815 13.3935 24.0815C13.5156 24.0815 13.6376 24.0815 13.7841 24.0571C13.7841 24.1791 13.7841 24.2768 13.8085 24.3988C13.8329 24.765 13.9061 25.0823 13.9793 25.3752C14.0281 25.5216 14.077 25.6437 14.1502 25.7901C14.199 25.9122 14.2966 26.0342 14.3943 26.2051C14.6872 26.62 15.1021 27.0106 15.5903 27.3279C16.0297 27.6208 16.5178 27.8405 17.1281 28.0113C17.3233 28.0602 17.5186 28.1334 17.7139 28.1578C17.7139 28.3775 17.7139 28.5972 17.6895 28.8412C17.6407 29.183 17.543 29.5247 17.421 29.842C17.3966 29.842 17.3966 29.842 17.3722 29.842C17.3477 29.842 17.2989 29.842 17.2745 29.842C17.2501 29.842 17.2257 29.8176 17.2013 29.8176C17.1769 29.8176 17.1525 29.8176 17.1281 29.842C17.0548 29.9152 16.9816 29.964 16.9328 30.0373C16.884 30.1105 16.8596 30.2081 16.8352 30.3058C16.8352 30.3546 16.8352 30.379 16.8108 30.4278C16.8108 30.4766 16.8108 30.5255 16.8108 30.5743C16.6887 30.5743 16.5667 30.6231 16.469 30.6475C16.3226 30.6963 16.1517 30.7695 15.9809 30.8672C15.8344 30.9648 15.6879 31.0869 15.5903 31.2089C15.5415 31.2577 15.5171 31.3309 15.4683 31.4042C15.4439 31.453 15.4439 31.5262 15.4194 31.575C15.395 31.5994 15.395 31.5994 15.395 31.6238C15.2486 31.6727 15.1021 31.7215 14.9557 31.7703C14.7848 31.8191 14.5895 31.8924 14.4187 31.9412L14.0037 32.0632C13.4423 32.2341 12.8077 32.4538 12.1731 32.7467C11.5628 33.0396 11.0014 33.3813 10.5133 33.8206C10.0251 34.2356 9.58573 34.7726 9.2196 35.3828C8.90228 35.9198 8.63379 36.5056 8.3897 37.2135C8.19443 37.7993 8.04797 38.4583 7.92593 39.1906C7.80389 39.8985 7.75507 40.6063 7.68184 41.363C7.60862 42.1685 7.5598 42.9984 7.53539 43.8039C7.46216 45.3904 7.46216 46.9526 7.53539 48.4416H7.77948C7.82829 47.0258 7.82829 45.5613 7.87711 44.0724C7.90152 43.3401 7.95034 42.559 7.99916 41.7779C8.02357 41.3874 8.07238 40.9969 8.09679 40.6307C8.1212 40.2646 8.17002 39.9473 8.19443 39.63C8.36529 38.4339 8.60938 37.4087 8.99992 36.5056C9.26842 35.871 9.58573 35.3096 9.97627 34.8214C10.318 34.4065 10.6841 34.0159 11.0991 33.6986C11.3188 33.5277 11.5873 33.3569 11.8313 33.2104C12.0754 33.064 12.3439 32.9419 12.6612 32.7955C13.2471 32.5514 13.8329 32.3805 14.4919 32.1608C14.8092 32.0632 15.1265 31.9656 15.4439 31.8679C15.5415 31.8435 15.6147 31.8191 15.6879 31.7947C15.81 31.8191 15.9564 31.8679 16.0785 31.8923C16.469 31.99 16.884 32.0632 17.2989 32.112H17.3233C17.8603 32.1853 18.4461 32.2341 19.0075 32.2829C19.3005 32.3073 19.569 32.3073 19.8619 32.3073C19.9595 32.3073 20.0571 32.3073 20.1548 32.3073C20.5941 32.3073 21.0579 32.2829 21.4973 32.2585C21.8634 32.2341 22.2051 32.2097 22.5468 32.1608H22.5712H22.5956C22.8397 32.1364 23.0594 32.0876 23.2791 32.0632C23.4744 32.0388 23.6452 31.99 23.7917 31.9656C23.9381 31.9412 24.0846 31.9168 24.2066 31.8679L24.2799 31.8435L24.4019 31.8923L24.5484 31.9412C24.8657 32.0388 25.183 32.1364 25.5003 32.2341C26.1593 32.4293 26.7452 32.6246 27.331 32.8687C27.6483 32.9907 27.9168 33.1372 28.1609 33.2837C28.4294 33.4301 28.6735 33.601 28.8931 33.7718C29.3081 34.0891 29.6742 34.4553 30.0159 34.8946C30.3821 35.3828 30.7238 35.9686 30.9923 36.5789C31.3828 37.482 31.6269 38.5071 31.7978 39.7032C31.8466 40.0205 31.871 40.3378 31.8954 40.7039C31.9198 41.0945 31.9686 41.485 31.9931 41.8512C32.0419 42.6322 32.0907 43.4133 32.1151 44.1456C32.1639 45.6101 32.1639 47.0502 32.0907 48.3927H32.3348C32.408 46.9282 32.408 45.3904 32.3348 43.8283C32.3104 43.0228 32.2616 42.2173 32.1883 41.3874C32.1151 40.6063 32.0663 39.8985 31.9442 39.215C31.8222 38.4827 31.6757 37.8237 31.4805 37.2379C31.2364 36.53 30.9679 35.9442 30.6506 35.4072C30.2844 34.797 29.8451 34.26 29.3569 33.8451C28.8687 33.4301 28.3073 33.064 27.6971 32.7711C27.0869 32.4782 26.4278 32.2585 25.8664 32.0876L25.4515 31.9656C25.2806 31.9168 25.0854 31.8435 24.9145 31.7947C24.768 31.7459 24.646 31.7215 24.524 31.6727V31.6483C24.524 31.5994 24.524 31.575 24.524 31.575C24.4751 31.4286 24.4019 31.3065 24.3287 31.1845C24.231 31.0624 24.1334 30.9404 23.987 30.8184C23.7429 30.6231 23.4744 30.4766 23.2059 30.4034C23.2059 30.3302 23.1815 30.2814 23.1571 30.2081C23.0838 30.0129 22.9618 29.842 22.8641 29.7444C22.8397 29.72 22.7909 29.6956 22.7665 29.6956C22.7421 29.6956 22.7421 29.6956 22.7177 29.6956C22.7177 29.6956 22.6933 29.6956 22.6689 29.6956C22.6689 29.6956 22.6445 29.6956 22.6201 29.6956H22.5956H22.5712H22.498H22.4492C22.3516 29.4271 22.2783 29.1341 22.2295 28.8412C22.2051 28.5727 22.1807 28.3287 22.2051 28.0846C22.7909 27.9625 23.3279 27.7917 23.8405 27.5964C24.4507 27.3523 24.9633 27.0594 25.3783 26.7177C25.4759 26.6444 25.5735 26.5468 25.6712 26.4492C25.7688 26.3515 25.8664 26.2051 25.9641 26.0586C26.0373 25.9366 26.0861 25.8145 26.1593 25.6437C26.2082 25.4972 26.257 25.3508 26.3058 25.1555C26.3546 24.9358 26.379 24.7162 26.4034 24.5209C26.4278 24.3256 26.4522 24.1547 26.4522 23.9595C26.4522 23.9595 26.4767 23.9595 26.4767 23.9839C26.6231 24.0083 26.7696 24.0327 26.916 24.0327C27.0381 24.0327 27.1357 24.0327 27.2577 24.0083C27.5262 23.9595 27.7703 23.8862 27.99 23.7398C28.2097 23.6177 28.405 23.4469 28.527 23.276C28.5758 23.2028 28.649 23.1296 28.6735 23.0563C28.7223 22.9831 28.7467 22.9099 28.7955 22.8123C28.942 22.4461 28.9664 21.9824 28.8443 21.5674C28.7955 21.3477 28.6979 21.1525 28.6002 20.9816C28.5026 20.7863 28.3805 20.6155 28.2341 20.4934C28.1853 20.4446 28.1121 20.3958 28.0632 20.347C28.2585 20.0541 28.3805 19.7123 28.5026 19.4194C28.6246 19.1265 28.7223 18.8092 28.7955 18.4675C28.9664 17.8328 29.064 17.1494 29.1128 16.466C29.1616 15.7825 29.1128 15.0991 29.0152 14.44C28.9175 13.781 28.7223 13.1464 28.4782 12.5361C28.405 12.3653 28.3073 12.17 28.2097 11.9991C28.3317 11.8039 28.4294 11.6086 28.527 11.3889C28.8443 10.6811 29.0152 10.0464 29.0152 9.4362C29.0152 9.24093 28.9908 9.07007 28.9664 8.89921C28.942 8.77716 28.8931 8.65512 28.8199 8.58189C28.7467 8.48426 28.6735 8.41103 28.5758 8.36221C28.4782 8.3134 28.3805 8.26458 28.2341 8.24017C28.0876 8.21576 27.9412 8.19135 27.7703 8.19135C27.6483 8.19135 27.5262 8.19135 27.4286 8.21576C27.2089 8.24017 26.9648 8.26458 26.7452 8.28899L26.5743 8.3134C26.4278 8.33781 26.257 8.36221 26.1105 8.36221C26.0861 8.36221 26.0373 8.36221 26.0129 8.36221C25.9397 8.36221 25.8664 8.36221 25.7688 8.36221C25.6223 8.36221 25.4759 8.33781 25.3294 8.3134C24.4263 8.19135 23.572 7.87404 22.7665 7.55672C22.3272 7.38586 21.8878 7.23941 21.4484 7.09295C20.765 6.89768 20.1304 6.80005 19.4957 6.80005ZM14.9069 16.9297C15.0045 16.2219 15.1265 15.4896 15.2974 14.7085C16.884 15.2211 18.3241 15.514 19.691 15.636C20.0571 15.6605 20.4477 15.6849 20.8138 15.6849C21.2043 15.6849 21.5949 15.6605 21.9854 15.636C22.7421 15.5628 23.4988 15.4164 24.2066 15.1723C24.5728 15.0502 24.9145 14.9282 25.2318 14.7817C25.4027 15.5628 25.5247 16.2707 25.6223 16.9541C25.72 17.6132 25.7688 18.2478 25.7932 18.858C25.8176 19.1753 25.8176 19.5171 25.8176 19.8832C25.8176 20.1029 25.8176 20.3225 25.842 20.5178L25.8664 20.8107C25.9153 21.6894 25.9397 22.5926 25.8176 23.4957C25.7444 23.9595 25.6468 24.3744 25.5003 24.7161C25.4027 24.9602 25.2806 25.1555 25.1342 25.3508C25.0609 25.4484 24.9633 25.546 24.8657 25.6437C24.7436 25.7413 24.6216 25.7901 24.4995 25.8634C24.3531 25.9122 24.2066 25.961 24.0358 25.9854C23.9137 26.0098 23.8405 26.0098 23.7429 26.0098C23.6208 26.0098 23.4988 26.0098 23.3523 25.9854C23.035 25.9366 22.7177 25.839 22.4004 25.7169C22.0587 25.5705 21.7413 25.3752 21.4484 25.1555C21.3508 25.0823 21.2043 24.9602 21.0579 24.8138C21.0335 24.7894 21.0091 24.7894 20.9847 24.7894C20.9847 24.7894 20.9603 24.765 20.9358 24.765C20.6429 24.6917 20.3989 24.6673 20.1548 24.6673C19.9595 24.6673 19.7642 24.6917 19.5934 24.7406C19.569 24.7406 19.569 24.7406 19.5445 24.765C19.5201 24.765 19.4957 24.7894 19.4957 24.7894C19.3737 24.9114 19.2516 25.0335 19.1296 25.1311C19.1296 25.1311 19.1296 25.1311 19.1052 25.1555C18.8367 25.3508 18.5194 25.546 18.1776 25.6925C17.8603 25.8145 17.543 25.9122 17.2257 25.961H17.2013C17.0792 25.961 16.9572 25.9854 16.8352 25.9854C16.7375 25.9854 16.6399 25.9854 16.5667 25.961C16.3958 25.9366 16.2249 25.8878 16.0785 25.839C15.9564 25.7901 15.8344 25.7169 15.7124 25.6193C15.6147 25.5461 15.5171 25.4484 15.4439 25.3264C15.2974 25.1311 15.1754 24.9358 15.0777 24.6917C14.9313 24.35 14.8336 23.9351 14.7604 23.4713C14.6384 22.5682 14.6872 21.6406 14.7116 20.7619V20.469C14.7116 20.2493 14.736 20.0296 14.736 19.8344C14.736 19.4682 14.7604 19.1265 14.7604 18.8092C14.7604 18.2234 14.8092 17.5888 14.9069 16.9297ZM12.466 20.5422C12.5636 20.469 12.6612 20.4202 12.7589 20.3714C12.8565 20.3226 12.9542 20.2981 13.0274 20.2981C13.0518 20.2981 13.1006 20.2981 13.125 20.2981C13.1738 20.2981 13.1982 20.2981 13.2471 20.2981C13.3203 20.2981 13.3935 20.3226 13.4667 20.347C13.54 20.3714 13.5888 20.4202 13.662 20.469C13.7352 20.5422 13.8085 20.6155 13.8817 20.6887C13.8817 20.8351 13.8573 21.006 13.8573 21.1769V21.2013V21.2257C13.8085 21.1769 13.7841 21.128 13.7352 21.1036C13.6132 21.006 13.4667 20.9328 13.3203 20.884C13.2227 20.8595 13.125 20.8351 13.003 20.8351C12.9542 20.8351 12.9053 20.8351 12.8565 20.8351C12.6857 20.8595 12.5148 20.9328 12.3683 21.0304C12.3439 21.0548 12.3195 21.0792 12.3195 21.1036C12.3195 21.128 12.3195 21.1769 12.3439 21.2013C12.3683 21.2501 12.4172 21.2745 12.466 21.2745C12.4904 21.2745 12.5148 21.2745 12.5148 21.2501C12.588 21.2013 12.6368 21.1525 12.7101 21.128C12.7833 21.1036 12.8321 21.0792 12.9053 21.0792C12.9297 21.0792 12.9786 21.0792 13.003 21.0792C13.0518 21.0792 13.0762 21.0792 13.125 21.0792C13.1982 21.1036 13.2715 21.1036 13.3447 21.1525C13.4179 21.1769 13.4911 21.2257 13.5644 21.2745C13.6376 21.3233 13.7108 21.3965 13.7596 21.4698C13.7841 21.5186 13.8085 21.543 13.8573 21.5918L13.8817 21.6162C13.8817 21.665 13.8817 21.6894 13.8817 21.7383C13.8817 21.8847 13.8817 22.0556 13.8817 22.202V22.3485C13.8817 22.5682 13.8817 22.7634 13.8573 22.9831C13.8573 23.2272 13.8329 23.4957 13.8329 23.7398C13.8085 23.7398 13.7841 23.7398 13.7596 23.7398H13.7352C13.662 23.7398 13.5644 23.7642 13.4911 23.7642C13.4179 23.7642 13.3203 23.7642 13.2471 23.7398C13.0762 23.7154 12.9053 23.6666 12.7589 23.6177C12.6124 23.5445 12.466 23.4713 12.3439 23.3737C12.2219 23.276 12.1243 23.1784 12.051 23.0807C11.9778 22.9587 11.9046 22.8611 11.8558 22.7634C11.8069 22.6414 11.7581 22.4949 11.7581 22.3485C11.7337 22.202 11.7337 22.0312 11.7581 21.8847C11.7825 21.7139 11.8313 21.5186 11.9046 21.3477C11.9778 21.1769 12.0754 21.006 12.1975 20.8351C12.2219 20.7375 12.3439 20.6399 12.466 20.5422ZM26.7452 20.4934C26.8184 20.4446 26.8672 20.3958 26.9404 20.3714C27.0137 20.347 27.0869 20.3226 27.1601 20.3226C27.2089 20.3226 27.2333 20.3226 27.2822 20.3226C27.3066 20.3226 27.3554 20.3226 27.3798 20.3226C27.4774 20.347 27.5751 20.3714 27.6483 20.3958C27.7703 20.4446 27.868 20.5178 27.9412 20.5666L27.9168 20.5422C28.0388 20.6399 28.1609 20.7619 28.2585 20.884C28.3805 21.0548 28.4782 21.2257 28.5514 21.3965C28.6246 21.5674 28.6735 21.7627 28.6979 21.9335C28.7223 22.08 28.7223 22.2509 28.6979 22.3973C28.6735 22.5438 28.649 22.6902 28.6002 22.8123C28.5514 22.9099 28.5026 23.0319 28.405 23.1296C28.3073 23.2516 28.2097 23.3493 28.0876 23.4225C27.9412 23.5201 27.8191 23.5933 27.6727 23.6666C27.5018 23.7398 27.3554 23.7642 27.1845 23.7886C27.1113 23.7886 27.0137 23.813 26.9404 23.813C26.8428 23.813 26.7696 23.813 26.6719 23.7886L26.5987 23.7642C26.5743 23.7642 26.5499 23.7642 26.5499 23.7642C26.5255 23.7642 26.5255 23.7642 26.5011 23.7642C26.5499 23.276 26.5499 22.739 26.5743 22.1044C26.5743 21.9335 26.5743 21.7627 26.5743 21.5918C26.5987 21.543 26.6231 21.5186 26.6475 21.4698C26.6963 21.3965 26.7696 21.3233 26.8428 21.2745C26.916 21.2257 26.9892 21.1769 27.0625 21.1525C27.1357 21.128 27.2089 21.1036 27.2822 21.0792C27.331 21.0792 27.3554 21.0792 27.4042 21.0792C27.4286 21.0792 27.4774 21.0792 27.5018 21.0792C27.5751 21.0792 27.6239 21.1036 27.6971 21.128C27.7703 21.1525 27.8436 21.2013 27.8924 21.2501C27.9168 21.2745 27.9412 21.2745 27.9412 21.2745C27.99 21.2745 28.0388 21.2501 28.0632 21.2013C28.0876 21.1769 28.0876 21.128 28.0876 21.1036C28.0876 21.0792 28.0632 21.0548 28.0388 21.0304C27.8924 20.9084 27.7215 20.8595 27.5506 20.8351C27.5018 20.8351 27.453 20.8351 27.4042 20.8351C27.2822 20.8351 27.1845 20.8595 27.0869 20.884C26.9404 20.9328 26.794 21.006 26.6719 21.1036C26.6475 21.128 26.5987 21.1525 26.5743 21.2013C26.5743 21.006 26.5743 20.8107 26.5743 20.6155C26.6475 20.5911 26.6963 20.5422 26.7452 20.4934ZM20.0083 28.3775C20.1792 28.3775 20.35 28.3775 20.5453 28.3775C21.0335 28.3531 21.5461 28.3042 22.0587 28.2066C22.0342 28.4751 22.0587 28.7436 22.0831 29.0121C22.1319 29.305 22.2051 29.5491 22.2783 29.7932H22.1807C21.9854 29.8176 21.8146 29.842 21.6437 29.842H21.5705H21.5217C21.3264 29.8664 21.1555 29.8664 21.0091 29.8908C20.5697 29.9152 20.1304 29.9396 19.691 29.9396C19.5445 29.9396 19.4225 29.9396 19.276 29.9396H19.2516H19.2272H19.2028C18.9831 29.9396 18.7635 29.9152 18.5438 29.9152C18.5194 29.9152 18.495 29.9152 18.4706 29.9152C18.3241 29.9152 18.1776 29.8908 18.0556 29.8908H17.9824H17.9336C17.8603 29.8908 17.7871 29.8664 17.7139 29.8664C17.7383 29.8176 17.7627 29.7688 17.7627 29.72C17.8603 29.4759 17.9336 29.2074 17.958 28.9145C18.0068 28.6704 18.0068 28.4263 18.0068 28.1822C18.2753 28.231 18.5682 28.2798 18.8611 28.3043C19.2272 28.3531 19.6178 28.3775 20.0083 28.3775ZM19.691 30.2081C20.1304 30.2081 20.5697 30.1837 20.9847 30.1593C21.1799 30.1593 21.3752 30.1349 21.5705 30.1105H21.6437H21.6925C21.8634 30.0861 22.0098 30.0861 22.1563 30.0617H22.2295H22.3027C22.4492 30.0373 22.5712 30.0129 22.6933 30.0129H22.7177H22.7421L22.7909 30.0373C22.8641 30.1349 22.913 30.2081 22.9374 30.3058C22.9618 30.3546 22.9862 30.4278 22.9862 30.4766C22.9862 30.501 22.9862 30.5499 22.9862 30.5743C22.9862 30.5987 22.9618 30.6475 22.9618 30.6719C22.9618 30.6963 22.9374 30.7207 22.913 30.7451C22.8886 30.7695 22.8641 30.794 22.8397 30.8184C22.7909 30.8428 22.7421 30.8672 22.6933 30.8916C22.6201 30.916 22.5468 30.9404 22.4492 30.9648C22.4248 30.9648 22.376 30.9892 22.376 31.0136C22.3516 31.038 22.3516 31.0869 22.3516 31.1113C22.3516 31.1357 22.376 31.1601 22.4004 31.1845C22.4248 31.1845 22.4492 31.2089 22.4736 31.2089C22.4736 31.2089 22.498 31.2089 22.5224 31.2089C22.7177 31.1845 22.8641 31.1113 22.9862 31.038C23.0838 30.9648 23.1571 30.8672 23.2059 30.7451C23.2791 30.7695 23.3523 30.794 23.4256 30.8184C23.5476 30.8672 23.6696 30.9404 23.7917 31.038C23.9137 31.1357 24.0114 31.2333 24.109 31.3554C24.1822 31.453 24.231 31.5506 24.2799 31.6483L24.3043 31.6727H24.2799H24.2555H24.231H24.2066L24.1578 31.6971C24.0114 31.7215 23.8893 31.7459 23.7673 31.7703C23.5964 31.7947 23.45 31.8435 23.2791 31.8679C23.1082 31.8923 22.9374 31.9168 22.7665 31.9412H22.6689H22.5712C22.2051 31.99 21.839 32.0144 21.4973 32.0388C21.0335 32.0632 20.5697 32.0876 20.1059 32.0876C20.0083 32.0876 19.9107 32.0876 19.7886 32.0876C19.5201 32.0876 19.276 32.0632 19.0075 32.0632C18.4706 32.0388 17.9824 31.99 17.4942 31.9168L17.3966 31.8923H17.3477C16.9328 31.8191 16.5178 31.7459 16.1273 31.6727C15.9809 31.6483 15.8588 31.5994 15.7124 31.575C15.7124 31.5506 15.7124 31.5506 15.7368 31.5262C15.7612 31.4774 15.7856 31.4286 15.81 31.3798C15.8588 31.3065 15.932 31.2577 15.9809 31.1845C16.0785 31.1113 16.2005 31.038 16.3226 30.9648L16.347 30.9404C16.469 30.8916 16.5911 30.8428 16.7131 30.8184C16.7619 30.8184 16.8108 30.7939 16.8596 30.7939H16.9084C16.9572 30.8672 17.006 30.916 17.0792 30.9648C17.1525 31.0136 17.2257 31.038 17.2989 31.0624C17.4454 31.1113 17.5918 31.1357 17.7871 31.1357C17.8359 31.1357 17.8603 31.1113 17.8847 31.0869C17.9092 31.0625 17.9336 31.0136 17.9092 30.9892C17.9092 30.916 17.8359 30.8672 17.7627 30.8672H17.7139C17.6651 30.8672 17.6407 30.8672 17.5918 30.8672C17.4698 30.8672 17.3966 30.8428 17.2989 30.8184C17.2501 30.794 17.2013 30.7695 17.1525 30.7451C17.1281 30.7207 17.1037 30.6963 17.0792 30.6719C17.0548 30.6475 17.0548 30.6231 17.0304 30.5987C17.006 30.5743 17.006 30.5255 17.006 30.501C17.006 30.4766 17.006 30.4278 17.006 30.4034C17.006 30.3546 17.0304 30.3058 17.0304 30.257C17.0548 30.2081 17.0548 30.1837 17.0792 30.1349C17.1037 30.1105 17.1281 30.0861 17.1525 30.0617C17.2257 30.0617 17.2745 30.0861 17.3477 30.0861H17.3722C17.5186 30.1105 17.6895 30.1105 17.8359 30.1349H17.8603C18.0312 30.1593 18.1776 30.1593 18.3485 30.1593C18.3973 30.1593 18.4217 30.1593 18.4706 30.1593C18.6658 30.1593 18.8367 30.1837 19.032 30.1837H19.1296H19.2028C19.4469 30.2081 19.569 30.2081 19.691 30.2081Z" fill="#2C2C2C"/>
<path d="M20.9846 22.8855C20.8626 22.8855 20.7405 22.8855 20.6185 22.9099C20.4476 22.9343 20.2767 22.9831 20.1059 23.0564C20.0815 23.0564 20.0815 23.0564 20.0815 23.0808C19.9106 23.0075 19.7397 22.9587 19.5689 22.9343C19.4468 22.9099 19.3248 22.9099 19.2027 22.9099C19.1539 22.9099 19.1051 22.9099 19.0563 22.9099C18.739 22.9343 18.4217 23.0075 18.0799 23.1784C17.8114 23.3005 17.5185 23.4957 17.25 23.7398C17.006 23.9595 16.7619 24.2036 16.5422 24.4965C16.5178 24.5209 16.5178 24.5453 16.5178 24.5941C16.5178 24.6429 16.5422 24.6673 16.591 24.6918C16.7375 24.765 16.8839 24.8138 17.0792 24.8138C17.1768 24.8138 17.2745 24.8138 17.3721 24.7894C17.7382 24.7162 18.0555 24.5697 18.324 24.4721C18.5681 24.35 18.8122 24.228 19.0807 24.0815C19.276 23.9595 19.4468 23.8619 19.6177 23.7398C19.7642 23.6422 19.9106 23.5201 20.0815 23.3737C20.2279 23.4957 20.3744 23.6178 20.5208 23.7398C20.5696 23.7642 20.6185 23.813 20.6673 23.8374C20.6673 23.8619 20.6429 23.8863 20.6429 23.9107C20.6185 23.9595 20.5941 23.9839 20.5696 24.0083C20.5208 24.0571 20.472 24.1059 20.4232 24.1304C20.3744 24.1548 20.3256 24.1792 20.2767 24.2036C20.2035 24.228 20.1547 24.228 20.1059 24.228C20.0571 24.228 20.0082 24.228 19.9838 24.228C19.9594 24.228 19.9106 24.2036 19.8862 24.2036C19.8618 24.1792 19.8374 24.1792 19.813 24.1548C19.7886 24.1304 19.7642 24.1059 19.7397 24.0815C19.7153 24.0571 19.6909 24.0083 19.6909 23.9839C19.6665 23.9351 19.6177 23.9107 19.5689 23.9107C19.5445 23.9107 19.5201 23.9107 19.5201 23.9351C19.4468 23.9595 19.4224 24.0327 19.4712 24.1059C19.4957 24.1792 19.5445 24.2524 19.6177 24.3256C19.6665 24.3744 19.7397 24.4233 19.813 24.4721C19.9106 24.5209 20.0082 24.5453 20.1303 24.5453C20.1791 24.5453 20.2279 24.5453 20.2767 24.5453C20.35 24.5453 20.4232 24.5209 20.4964 24.4721C20.5696 24.4477 20.6429 24.3989 20.6917 24.35C20.7405 24.3012 20.7893 24.2524 20.8626 24.1792C20.887 24.1303 20.9358 24.0815 20.9358 24.0083C20.9846 24.0571 21.0578 24.0815 21.1066 24.1059C21.3751 24.2524 21.5948 24.3744 21.8633 24.4965C22.1074 24.6185 22.4491 24.765 22.8153 24.8138C22.9129 24.8382 23.0105 24.8382 23.1082 24.8382C23.3034 24.8382 23.4743 24.7894 23.5963 24.7162C23.6452 24.6918 23.6696 24.6429 23.6696 24.6185C23.6696 24.5941 23.6696 24.5453 23.6452 24.5209C23.4255 24.228 23.1814 23.9595 22.9373 23.7642C22.6688 23.5201 22.3759 23.3493 22.1074 23.2028C21.7657 23.0319 21.4484 22.9587 21.131 22.9343C21.0822 22.8855 21.0334 22.8855 20.9846 22.8855Z" fill="#2C2C2C"/>
</g>
</svg>
