<svg width="24" height="24" viewBox="0 0 24 24" fill="none" xmlns="http://www.w3.org/2000/svg">
<path d="M12 24C18.6274 24 24 18.6274 24 12C24 5.37258 18.6274 0 12 0C5.37258 0 0 5.37258 0 12C0 18.6274 5.37258 24 12 24Z" fill="#324332"/>
<path d="M23.9564 13.0275L16.4132 5.48433L16.0694 6.04908L13.5055 3.48511L11.3288 3.60933L5.01251 16.8575L6.89693 18.7419L6.43081 19.1064L11.3037 23.9793C11.5344 23.9925 11.7666 23.9999 12.0006 23.9999C18.2818 23.9999 23.435 19.1738 23.9564 13.0275Z" fill="#263426"/>
<path d="M7.96451 19.8685C9.02878 19.8685 9.89154 19.0057 9.89154 17.9414C9.89154 16.8772 9.02878 16.0144 7.96451 16.0144C6.90024 16.0144 6.03748 16.8772 6.03748 17.9414C6.03748 19.0057 6.90024 19.8685 7.96451 19.8685Z" fill="#FEFFBE"/>
<path d="M7.96571 16.0144C7.9426 16.0144 7.91973 16.0153 7.89685 16.0161V19.8669C7.91977 19.8677 7.94265 19.8687 7.96571 19.8687C9.03005 19.8687 9.89283 19.0059 9.89283 17.9415C9.89283 16.8772 9.03001 16.0144 7.96571 16.0144Z" fill="#F7F04F"/>
<path d="M16.4132 5.48437H13.7006C13.8274 5.23003 13.8991 4.94362 13.8991 4.64062C13.8991 3.59381 13.0474 2.74219 12.0006 2.74219C10.9538 2.74219 10.1022 3.59381 10.1022 4.64062C10.1022 4.94362 10.1739 5.23003 10.3007 5.48437H7.58811L5.01251 16.8576H18.9888L16.4132 5.48437ZM11.0866 4.64062C11.0866 4.13662 11.4966 3.72656 12.0006 3.72656C12.5046 3.72656 12.9147 4.13662 12.9147 4.64062C12.9147 5.02031 12.6819 5.34647 12.3516 5.48437H11.6496C11.3194 5.34647 11.0866 5.02031 11.0866 4.64062Z" fill="#E4FFDF"/>
<path d="M16.4132 5.48437H13.7006C13.8274 5.23003 13.8991 4.94362 13.8991 4.64062C13.8991 3.59381 13.0475 2.74219 12.0007 2.74219C11.9999 2.74219 11.9992 2.74223 11.9984 2.74223V3.72666C11.9992 3.72666 11.9999 3.72656 12.0007 3.72656C12.5047 3.72656 12.9147 4.13662 12.9147 4.64062C12.9147 5.02031 12.6819 5.34647 12.3517 5.48437H11.9984V16.8576H18.9888L16.4132 5.48437Z" fill="#74D373"/>
</svg>
