<svg width="22" height="22" viewBox="0 0 22 22" fill="none" xmlns="http://www.w3.org/2000/svg">
<path d="M11 21.3933C16.7213 21.3933 21.3594 16.7482 21.3594 11.0182C21.3594 5.28816 16.7213 0.643066 11 0.643066C5.27868 0.643066 0.640625 5.28816 0.640625 11.0182C0.640625 16.7482 5.27868 21.3933 11 21.3933Z" fill="#F0F0F0"/>
<path d="M10.5492 11.0176H21.359C21.359 10.0812 21.2343 9.17399 21.0021 8.31104H10.5492V11.0176Z" fill="#D80027"/>
<path d="M10.5492 5.60525H19.8385C19.2043 4.56887 18.3935 3.65282 17.4481 2.89868H10.5492V5.60525Z" fill="#D80027"/>
<path d="M10.9999 21.3932C13.438 21.3932 15.6789 20.5492 17.4485 19.1377H4.55139C6.32098 20.5492 8.56189 21.3932 10.9999 21.3932Z" fill="#D80027"/>
<path d="M2.15995 16.4317H19.8377C20.3468 15.5997 20.7417 14.6902 21.0013 13.7251H0.996338C1.25601 14.6902 1.65084 15.5997 2.15995 16.4317Z" fill="#D80027"/>
<path d="M5.43928 2.26329H6.38332L5.5052 2.90221L5.84063 3.93603L4.96255 3.29711L4.08447 3.93603L4.37421 3.04292C3.60106 3.68792 2.92341 4.4436 2.36498 5.28561H2.66746L2.1085 5.6923C2.02142 5.8378 1.93789 5.9856 1.85785 6.13559L2.12477 6.95835L1.62679 6.59599C1.503 6.85865 1.38978 7.12723 1.288 7.4014L1.58207 8.30793H2.66746L1.78934 8.94685L2.12477 9.98067L1.24669 9.34175L0.720708 9.72449C0.668061 10.1483 0.640625 10.58 0.640625 11.0182H11C11 5.2882 11 4.61268 11 0.643066C8.95354 0.643066 7.04583 1.23761 5.43928 2.26329ZM5.84063 9.98067L4.96255 9.34175L4.08447 9.98067L4.41989 8.94685L3.54178 8.30793H4.62716L4.96255 7.2741L5.29793 8.30793H6.38332L5.5052 8.94685L5.84063 9.98067ZM5.5052 5.92453L5.84063 6.95835L4.96255 6.31943L4.08447 6.95835L4.41989 5.92453L3.54178 5.28561H4.62716L4.96255 4.25178L5.29793 5.28561H6.38332L5.5052 5.92453ZM9.55649 9.98067L8.67841 9.34175L7.80033 9.98067L8.13575 8.94685L7.25764 8.30793H8.34302L8.67841 7.2741L9.01379 8.30793H10.0992L9.22106 8.94685L9.55649 9.98067ZM9.22106 5.92453L9.55649 6.95835L8.67841 6.31943L7.80033 6.95835L8.13575 5.92453L7.25764 5.28561H8.34302L8.67841 4.25178L9.01379 5.28561H10.0992L9.22106 5.92453ZM9.22106 2.90221L9.55649 3.93603L8.67841 3.29711L7.80033 3.93603L8.13575 2.90221L7.25764 2.26329H8.34302L8.67841 1.22946L9.01379 2.26329H10.0992L9.22106 2.90221Z" fill="#0052B4"/>
</svg>
