<svg width="31" height="32" viewBox="0 0 31 32" fill="none" xmlns="http://www.w3.org/2000/svg">
<path d="M30.1365 -3.7737e-08L30.9998 1.36377L30.9998 4.86377L30.1365 5.86377L30.1365 26.0704L0.00012079 29.289L0.00012193 3.21857L30.1365 -3.7737e-08Z" fill="#324332"/>
<path d="M27.8181 2.25293L27.8181 25.1048L2.06056 27.6797L2.06056 4.82779L27.8181 2.25293Z" fill="#74D373"/>
<path d="M0.500017 3.77098L25.2576 6.24587L25.2576 31.3113L0.500016 28.8364L0.500017 3.77098Z" fill="#324332" stroke="#324332"/>
<path d="M8.38068 9.47217H12.9354C14.1671 9.47217 15.1124 9.56885 15.7713 9.76221C16.4373 9.95557 16.935 10.2349 17.2645 10.6001C17.6011 10.9653 17.8266 11.4093 17.9412 11.9321C18.063 12.4478 18.1238 13.2498 18.1238 14.3384V15.853C18.1238 16.9631 18.0093 17.7723 17.7801 18.2808C17.5509 18.7892 17.1284 19.1795 16.5125 19.4517C15.9038 19.7238 15.1053 19.8599 14.117 19.8599H12.9031V26.8638H8.38068V9.47217ZM12.9031 12.4478V16.8735C13.032 16.8807 13.143 16.8843 13.2361 16.8843C13.6515 16.8843 13.938 16.784 14.0955 16.5835C14.2602 16.3758 14.3426 15.9497 14.3426 15.3052V13.8765C14.3426 13.2821 14.2495 12.8953 14.0633 12.7163C13.8771 12.5373 13.4904 12.4478 12.9031 12.4478Z" fill="#74D372"/>
</svg>
