<svg width="24" height="24" viewBox="0 0 24 24" fill="none" xmlns="http://www.w3.org/2000/svg">
<path d="M12.0182 2.76259e-09C18.6356 2.76259e-09 23.9919 5.37258 23.9818 12C23.9718 18.6274 18.5992 24 11.9818 24C5.36444 24 0.00814399 18.6274 0.0181901 12C0.0282362 5.37258 5.40082 2.76259e-09 12.0182 2.76259e-09Z" fill="#324332"/>
<path d="M12 22.3933C17.7213 22.3933 22.3594 17.7482 22.3594 12.0182C22.3594 6.28816 17.7213 1.64307 12 1.64307C6.27868 1.64307 1.64062 6.28816 1.64062 12.0182C1.64062 17.7482 6.27868 22.3933 12 22.3933Z" fill="#F0F0F0"/>
<path d="M11.5492 12.0176H22.359C22.359 11.0812 22.2343 10.174 22.0021 9.31104H11.5492V12.0176Z" fill="#D80027"/>
<path d="M11.5492 6.60525H20.8385C20.2043 5.56887 19.3935 4.65282 18.4481 3.89868H11.5492V6.60525Z" fill="#D80027"/>
<path d="M11.9999 22.3932C14.438 22.3932 16.6789 21.5492 18.4485 20.1377H5.55139C7.32098 21.5492 9.56189 22.3932 11.9999 22.3932Z" fill="#D80027"/>
<path d="M3.15995 17.4317H20.8377C21.3468 16.5997 21.7417 15.6902 22.0013 14.7251H1.99634C2.25601 15.6902 2.65084 16.5997 3.15995 17.4317Z" fill="#D80027"/>
<path d="M6.43928 3.26329H7.38332L6.5052 3.90221L6.84063 4.93603L5.96255 4.29711L5.08447 4.93603L5.37421 4.04292C4.60106 4.68792 3.92341 5.4436 3.36498 6.28561H3.66746L3.1085 6.6923C3.02142 6.8378 2.93789 6.9856 2.85785 7.13559L3.12477 7.95835L2.62679 7.59599C2.503 7.85865 2.38978 8.12723 2.288 8.4014L2.58207 9.30793H3.66746L2.78934 9.94685L3.12477 10.9807L2.24669 10.3417L1.72071 10.7245C1.66806 11.1483 1.64062 11.58 1.64062 12.0182H12C12 6.2882 12 5.61268 12 1.64307C9.95354 1.64307 8.04583 2.23761 6.43928 3.26329ZM6.84063 10.9807L5.96255 10.3417L5.08447 10.9807L5.41989 9.94685L4.54178 9.30793H5.62716L5.96255 8.2741L6.29793 9.30793H7.38332L6.5052 9.94685L6.84063 10.9807ZM6.5052 6.92453L6.84063 7.95835L5.96255 7.31943L5.08447 7.95835L5.41989 6.92453L4.54178 6.28561H5.62716L5.96255 5.25178L6.29793 6.28561H7.38332L6.5052 6.92453ZM10.5565 10.9807L9.67841 10.3417L8.80033 10.9807L9.13575 9.94685L8.25764 9.30793H9.34302L9.67841 8.2741L10.0138 9.30793H11.0992L10.2211 9.94685L10.5565 10.9807ZM10.2211 6.92453L10.5565 7.95835L9.67841 7.31943L8.80033 7.95835L9.13575 6.92453L8.25764 6.28561H9.34302L9.67841 5.25178L10.0138 6.28561H11.0992L10.2211 6.92453ZM10.2211 3.90221L10.5565 4.93603L9.67841 4.29711L8.80033 4.93603L9.13575 3.90221L8.25764 3.26329H9.34302L9.67841 2.22946L10.0138 3.26329H11.0992L10.2211 3.90221Z" fill="#0052B4"/>
<path d="M12 22.3933C17.7213 22.3933 22.3594 17.7482 22.3594 12.0182C22.3594 6.28816 17.7213 1.64307 12 1.64307C6.27868 1.64307 1.64062 6.28816 1.64062 12.0182C1.64062 17.7482 6.27868 22.3933 12 22.3933Z" fill="#F0F0F0"/>
<path d="M21.715 15.6269C22.1315 14.5029 22.3594 13.2872 22.3594 12.0181C22.3594 10.7491 22.1315 9.53338 21.715 8.40942H2.28497C1.86857 9.53338 1.64062 10.7491 1.64062 12.0181C1.64062 13.2872 1.86857 14.5029 2.28497 15.6269L12 16.529L21.715 15.6269Z" fill="#0052B4"/>
<path d="M12.0006 22.3934C16.4547 22.3934 20.2519 19.5778 21.7156 15.627H2.28552C3.74923 19.5778 7.54639 22.3934 12.0006 22.3934Z" fill="#D80027"/>
</svg>
