<svg width="24" height="24" viewBox="0 0 24 24" fill="none" xmlns="http://www.w3.org/2000/svg">
<path d="M12 24C18.6274 24 24 18.6274 24 12C24 5.37258 18.6274 0 12 0C5.37258 0 0 5.37258 0 12C0 18.6274 5.37258 24 12 24Z" fill="#324332"/>
<path d="M23.9993 11.9998C23.9993 11.6787 23.9863 11.3607 23.9615 11.0458L17.4269 4.51123L9.88771 5.94068L9.91433 16.4745L5.25313 16.9326L8.95578 20.6353L7.86168 21.4271L10.3164 23.8818C10.8663 23.959 11.428 23.9998 11.9993 23.9998C18.6267 23.9998 23.9993 18.6273 23.9993 11.9998Z" fill="#263426"/>
<path d="M10.7688 21.4273H7.8625V3.35083H14.4031C16.9014 3.35083 18.9338 5.38333 18.9338 7.88158C18.9338 10.3798 16.9014 12.4123 14.4031 12.4123H10.7688V21.4273ZM10.7688 9.50608H14.4031C15.2988 9.50608 16.0276 8.77731 16.0276 7.88158C16.0276 6.98585 15.2988 6.25708 14.4031 6.25708H10.7688V9.50608Z" fill="#FFE000"/>
<path d="M14.4031 3.35083H11.9812V6.25708H14.4031C15.2989 6.25708 16.0276 6.98585 16.0276 7.88158C16.0276 8.77731 15.2989 9.50608 14.4031 9.50608H11.9812V12.4123H14.4031C16.9014 12.4123 18.9338 10.3798 18.9338 7.88158C18.9338 5.38333 16.9014 3.35083 14.4031 3.35083Z" fill="#FFC200"/>
<path d="M5.25313 14.0266H16.9146V16.9329H5.25313V14.0266Z" fill="#FFE000"/>
<path d="M11.9812 14.0266H16.9155V16.9329H11.9812V14.0266Z" fill="#FFC200"/>
</svg>
