<svg width="24" height="24" viewBox="0 0 24 24" fill="none" xmlns="http://www.w3.org/2000/svg">
<path d="M12 24C18.6274 24 24 18.6274 24 12C24 5.37258 18.6274 0 12 0C5.37258 0 0 5.37258 0 12C0 18.6274 5.37258 24 12 24Z" fill="#324332"/>
<path d="M14.8897 23.6487C20.0181 22.3802 23.8463 17.8145 23.9944 12.3299L18.8893 7.22479L14.7825 10.2532L10.5336 6.00439L4.97168 10.7963L8.60768 14.4323L6.88095 15.6399L14.8897 23.6487Z" fill="#263426"/>
<path d="M18.8893 18.4287L16.0448 15.6399H6.88086V7.22485H18.8893V18.4287Z" fill="#E4FFDF"/>
<path d="M11.9707 7.22485V15.6399H16.0467L18.8911 18.4287V7.22485H11.9707Z" fill="#74D373"/>
<path d="M7.81234 12.1408C9.84018 12.1408 11.4841 10.4969 11.4841 8.46908C11.4841 6.44125 9.84018 4.79736 7.81234 4.79736C5.78451 4.79736 4.14062 6.44125 4.14062 8.46908C4.14062 10.4969 5.78451 12.1408 7.81234 12.1408Z" fill="#808AFF"/>
<path d="M7.8125 4.79688V12.1406C9.84041 12.1406 11.4844 10.4967 11.4844 8.46878C11.4844 6.44088 9.84041 4.79688 7.8125 4.79688Z" fill="#666ECC"/>
<path d="M8.35156 5.69775H7.27344V9.17166H8.35156V5.69775Z" fill="#F2F2F2"/>
<path d="M8.35156 5.69775H7.8125V9.17166H8.35156V5.69775Z" fill="#E0E0E0"/>
<path d="M8.35156 9.99268H7.27344V11.1037H8.35156V9.99268Z" fill="#F2F2F2"/>
<path d="M8.35156 9.99268H7.8125V11.1037H8.35156V9.99268Z" fill="#E0E0E0"/>
</svg>
