<svg width="30" height="30" viewBox="0 0 30 30" fill="none" xmlns="http://www.w3.org/2000/svg">
<path d="M30 0.000579834H0V29.9999H30V0.000579834Z" fill="#0052B4"/>
<path d="M30 0.000213623H0V7.50021H30V0.000213623Z" fill="#FFDA44"/>
<path d="M30 7.5H0V15H30V7.5Z" fill="#F0F0F0"/>
<path d="M30 15H0V22.5H30V15Z" fill="#D80027"/>
<path d="M15 15.0005L0 30V0L15 15.0005Z" fill="#6DA544"/>
<path d="M3.81982 15C3.81982 13.2048 5.08146 11.7052 6.76626 11.3372C6.50728 11.2806 6.23863 11.25 5.96271 11.25C3.89159 11.25 2.21271 12.9289 2.21271 15C2.21271 17.0711 3.89159 18.75 5.96271 18.75C6.23868 18.75 6.50734 18.7194 6.76626 18.6628C5.08152 18.2948 3.81982 16.7952 3.81982 15Z" fill="#F0F0F0"/>
<path d="M6.72493 11.7857L6.92438 12.3996H7.56979L7.0476 12.7789L7.24712 13.3928L6.72493 13.0134L6.20268 13.3928L6.40219 12.7789L5.87994 12.3996H6.52541L6.72493 11.7857Z" fill="#F0F0F0"/>
<path d="M6.72493 13.3928L6.92438 14.0067H7.56979L7.0476 14.3861L7.24712 14.9999L6.72493 14.6206L6.20268 14.9999L6.40219 14.3861L5.87994 14.0067H6.52541L6.72493 13.3928Z" fill="#F0F0F0"/>
<path d="M6.72493 15L6.92438 15.6139H7.56979L7.0476 15.9933L7.24712 16.6072L6.72493 16.2278L6.20268 16.6072L6.40219 15.9933L5.87994 15.6139H6.52541L6.72493 15Z" fill="#F0F0F0"/>
<path d="M6.72493 16.6072L6.92438 17.2211H7.56979L7.0476 17.6004L7.24712 18.2143L6.72493 17.8349L6.20268 18.2143L6.40219 17.6004L5.87994 17.2211H6.52541L6.72493 16.6072Z" fill="#F0F0F0"/>
</svg>
