<svg width="30" height="30" viewBox="0 0 30 30" fill="none" xmlns="http://www.w3.org/2000/svg">
<path d="M29.6169 11.6169C28.0828 4.96196 22.1209 0 15 0C6.71579 0 0 6.71573 0 15C0 22.2843 5.1927 28.3551 12.0781 29.7146L29.6169 11.6169Z" fill="#324332"/>
<path d="M30 15C30 13.8366 29.8675 12.7042 29.6169 11.6169L25.5 7.5L9.58254 10.5981L7.05744 8.07305L4.29047 10.84L7.06219 13.6117L4.29047 16.3834L7.06219 19.1551L4.29047 21.927L12.0782 29.7147C13.0233 29.9013 14.0001 30 15 30C23.2843 30 30 23.2842 30 15Z" fill="#263426"/>
<path d="M25.5001 7.5V11.4131H17.2174L14.3185 9.45651L17.2174 7.5H25.5001Z" fill="#74D373"/>
<path d="M17.2175 7.5H8.93481V11.4131H17.2175V7.5Z" fill="#E4FFDF"/>
<path d="M5.67392 7.5L4.60669 9.45651L5.67392 11.413C6.7545 11.413 7.63042 10.5371 7.63042 9.45651C7.63042 8.37592 6.7545 7.5 5.67392 7.5Z" fill="#74D373"/>
<path d="M3.71741 9.45651C3.71741 10.5371 4.59333 11.413 5.67391 11.413V7.5C4.59344 7.5 3.71741 8.37592 3.71741 9.45651Z" fill="#E4FFDF"/>
<path d="M25.5001 13.0435V16.9565H17.2174L14.3185 15L17.2174 13.0435H25.5001Z" fill="#74D373"/>
<path d="M17.2175 13.0435H8.93481V16.9565H17.2175V13.0435Z" fill="#E4FFDF"/>
<path d="M5.67392 13.0435L4.60669 15L5.67392 16.9565C6.7545 16.9565 7.63042 16.0805 7.63042 15C7.63042 13.9194 6.7545 13.0435 5.67392 13.0435Z" fill="#74D373"/>
<path d="M3.71741 15C3.71741 16.0806 4.59333 16.9565 5.67391 16.9565V13.0435C4.59344 13.0435 3.71741 13.9194 3.71741 15Z" fill="#E4FFDF"/>
<path d="M25.5001 18.5869V22.5H17.2174L14.3185 20.5435L17.2174 18.5869H25.5001Z" fill="#74D373"/>
<path d="M17.2175 18.5869H8.93481V22.5H17.2175V18.5869Z" fill="#E4FFDF"/>
<path d="M5.67392 18.5869L4.60669 20.5434L5.67392 22.5C6.7545 22.5 7.63042 21.6241 7.63042 20.5435C7.63042 19.4629 6.7545 18.5869 5.67392 18.5869Z" fill="#74D373"/>
<path d="M3.71741 20.5435C3.71741 21.6241 4.59333 22.5 5.67391 22.5V18.5869C4.59344 18.5869 3.71741 19.4629 3.71741 20.5435Z" fill="#E4FFDF"/>
</svg>
