<svg width="30" height="30" viewBox="0 0 30 30" fill="none" xmlns="http://www.w3.org/2000/svg">
<rect width="30" height="30" fill="#324332"/>
<path d="M29.6169 11.6169C28.0828 4.96196 22.1209 0 15 0C6.71579 0 0 6.71573 0 15C0 22.2843 5.1927 28.3551 12.0781 29.7146L29.6169 11.6169Z" fill="#324332"/>
<path d="M30 15C30 13.8366 29.8674 12.7042 29.6168 11.6169L25.5 7.5L9.58251 10.5981L7.05741 8.07305L4.29044 10.84L7.06216 13.6117L4.29044 16.3834L7.06216 19.1551L4.29044 21.927L12.0781 29.7147C13.0233 29.9013 14.0001 30 15 30C23.2843 30 30 23.2842 30 15Z" fill="#263426"/>
<path d="M25.5 7.5V11.4131H17.2174L14.3185 9.45651L17.2174 7.5H25.5Z" fill="#74D373"/>
<path d="M17.2175 7.5H8.93481V11.4131H17.2175V7.5Z" fill="#E4FFDF"/>
<path d="M5.67395 7.5L4.60672 9.45651L5.67395 11.413C6.75453 11.413 7.63045 10.5371 7.63045 9.45651C7.63045 8.37592 6.75453 7.5 5.67395 7.5Z" fill="#74D373"/>
<path d="M3.71738 9.45651C3.71738 10.5371 4.5933 11.413 5.67388 11.413V7.5C4.59341 7.5 3.71738 8.37592 3.71738 9.45651Z" fill="#E4FFDF"/>
<path d="M25.5 13.0435V16.9565H17.2174L14.3185 15L17.2174 13.0435H25.5Z" fill="#74D373"/>
<path d="M17.2175 13.0435H8.93481V16.9565H17.2175V13.0435Z" fill="#E4FFDF"/>
<path d="M5.67395 13.0435L4.60672 15L5.67395 16.9565C6.75453 16.9565 7.63045 16.0805 7.63045 15C7.63045 13.9194 6.75453 13.0435 5.67395 13.0435Z" fill="#74D373"/>
<path d="M3.71738 15C3.71738 16.0806 4.5933 16.9565 5.67388 16.9565V13.0435C4.59341 13.0435 3.71738 13.9194 3.71738 15Z" fill="#E4FFDF"/>
<path d="M25.5 18.5869V22.5H17.2174L14.3185 20.5435L17.2174 18.5869H25.5Z" fill="#74D373"/>
<path d="M17.2175 18.5869H8.93481V22.5H17.2175V18.5869Z" fill="#E4FFDF"/>
<path d="M5.67395 18.5869L4.60672 20.5434L5.67395 22.5C6.75453 22.5 7.63045 21.6241 7.63045 20.5435C7.63045 19.4629 6.75453 18.5869 5.67395 18.5869Z" fill="#74D373"/>
<path d="M3.71738 20.5435C3.71738 21.6241 4.5933 22.5 5.67388 22.5V18.5869C4.59341 18.5869 3.71738 19.4629 3.71738 20.5435Z" fill="#E4FFDF"/>
<rect width="30" height="30" fill="#324332"/>
<path d="M30 15C30 23.2844 23.2844 30 15 30C6.71562 30 0 23.2844 0 15C0 6.71562 6.71562 0 15 0C23.2844 0 30 6.71562 30 15Z" fill="#324332"/>
<path d="M30 14.9999C30 14.6809 29.9888 14.3643 29.9693 14.0503L23.9781 8.05908L7.95135 23.9874L13.9252 29.9612C14.2802 29.9864 14.6386 29.9999 15 29.9999C23.2844 29.9999 30 23.2843 30 14.9999Z" fill="#263426"/>
<path d="M8.02164 5.99609L5.93744 8.08029L12.8842 15.0271L5.93744 21.9736L8.02164 24.0578L14.9682 17.1111L15.9508 15.0271L14.9682 12.9429L8.02164 5.99609Z" fill="#E4FFDF"/>
<path d="M23.9992 8.08029L21.915 5.99609L14.9682 12.9429V17.1111L21.915 24.0578L23.9992 21.9736L17.0524 15.0271L23.9992 8.08029Z" fill="#74D373"/>
</svg>
