<svg width="30" height="30" viewBox="0 0 30 30" fill="none" xmlns="http://www.w3.org/2000/svg">
<rect width="30" height="30" fill="#324332"/>
<path d="M30 15.0002C30 14.9297 29.9984 14.8597 29.9972 14.7894L24.1738 8.96596L23.9323 9.56036L20.0441 5.67212L6.5293 23.7034L12.6409 29.815C13.4095 29.9363 14.1973 30.0002 15 30.0002C23.2844 30.0002 30 23.2846 30 15.0002Z" fill="#263426"/>
<path d="M20.436 16.8394C23.1004 16.8394 25.2604 14.6796 25.2604 12.0152C25.2604 9.48767 23.3165 7.41446 20.8423 7.20824C20.0897 4.97092 17.9751 3.35913 15.4842 3.35913C12.8106 3.35913 10.5708 5.21559 9.983 7.70972C9.76923 7.67905 9.55064 7.66302 9.3284 7.66302C6.79445 7.66302 4.74023 9.71724 4.74023 12.2512C4.74023 14.7854 6.79445 16.8396 9.3284 16.8396L20.436 16.8394Z" fill="#E4FFDF"/>
<path d="M20.842 7.20824C20.0894 4.97092 17.9748 3.35913 15.4838 3.35913C15.3161 3.35913 15.1501 3.36646 14.986 3.38087V16.8396H20.4357C23.1001 16.8396 25.2601 14.6796 25.2601 12.0152C25.2601 9.48767 23.3162 7.41446 20.842 7.20824Z" fill="#74D373"/>
<path d="M23.2244 23.7035H9.32031L10.2697 12.7156H24.1741L23.2244 23.7035Z" fill="#FFB600"/>
<path d="M24.1741 12.7156H14.9863V23.7035H23.2245L24.1741 12.7156Z" fill="#FF9500"/>
<path d="M12.5427 13.9449L11.4876 11.1331H6.5293V23.7035H23.2242V13.9449H12.5427Z" fill="#FFDA00"/>
<path d="M14.9863 13.9448H23.2245V23.7034H14.9863V13.9448Z" fill="#FFB600"/>
</svg>
