<svg width="30" height="30" viewBox="0 0 30 30" fill="none" xmlns="http://www.w3.org/2000/svg">
<rect width="30" height="30" fill="#324332"/>
<mask id="mask0" mask-type="alpha" maskUnits="userSpaceOnUse" x="0" y="0" width="30" height="30">
<rect width="30" height="30" fill="#324332"/>
</mask>
<g mask="url(#mask0)">
<path d="M15.9903 29.9666C31.9915 33.5156 39.9895 29.707 29.4526 19.024L24.9344 14.4552L14.3693 11.1622L19.056 15.849L4.12891 18.1052L15.9903 29.9666Z" fill="#263426"/>
<path d="M20.1562 17.817C20.1562 18.5289 16.5229 19.1061 12.041 19.1061C7.55912 19.1061 3.92578 18.5289 3.92578 17.817V15.9375H20.1562V17.817Z" fill="#FFC000"/>
<path d="M12.0117 15.9375V19.106C12.0215 19.106 12.0312 19.1061 12.041 19.1061C16.5229 19.1061 20.1562 18.5289 20.1562 17.817V15.9375H12.0117Z" fill="#E5AC0A"/>
<path d="M12.041 17.2266C16.5229 17.2266 20.1562 16.6494 20.1562 15.9375C20.1562 15.2256 16.5229 14.6484 12.041 14.6484C7.5591 14.6484 3.92578 15.2256 3.92578 15.9375C3.92578 16.6494 7.5591 17.2266 12.041 17.2266Z" fill="#FFDC00"/>
<path d="M12.041 14.6484C12.0312 14.6484 12.0215 14.6485 12.0117 14.6485V17.2265C12.0215 17.2265 12.0312 17.2266 12.041 17.2266C16.5229 17.2266 20.1562 16.6494 20.1562 15.9375C20.1562 15.2256 16.5229 14.6484 12.041 14.6484Z" fill="#FFC000"/>
<path d="M25.0052 18C24.5707 18.564 21.3403 16.8035 17.7901 14.068C14.2398 11.3325 11.714 8.6577 12.1485 8.09379L13.2956 6.60498L26.1523 16.5112L25.0052 18Z" fill="#FFC000"/>
<path d="M19.724 11.5575L17.7285 14.0197C17.7494 14.0358 17.7701 14.0519 17.791 14.0681C21.3412 16.8036 24.5716 18.564 25.0061 18.0001L26.1532 16.5112L19.724 11.5575Z" fill="#E5AC0A"/>
<path d="M26.1499 16.5098C26.5844 15.9459 24.0588 13.2715 20.5089 10.5364C16.959 7.80122 13.729 6.04106 13.2945 6.60496C12.86 7.16885 15.3856 9.84326 18.9355 12.5784C22.4854 15.3136 25.7154 17.0737 26.1499 16.5098Z" fill="#FFDC00"/>
<path d="M20.5358 10.5557L18.9121 12.5591C18.9208 12.5658 18.9293 12.5725 18.938 12.5791C22.4883 15.3147 25.7186 17.0751 26.1531 16.5111C26.5867 15.9485 24.0733 13.2847 20.5358 10.5557Z" fill="#FFC000"/>
</g>
</svg>
