<svg width="30" height="30" viewBox="0 0 30 30" fill="none" xmlns="http://www.w3.org/2000/svg">
<rect width="30" height="30" fill="#324332"/>
<path d="M17.3715 29.8001C23.5703 28.8151 28.5035 24.0334 29.7134 17.9125L22.5 10.1953L17.3715 4.59961L10.5469 19.1602L14.2969 23.291V26.4551L17.3715 29.8001Z" fill="#263426"/>
<path d="M15.7031 17.3718H14.2969V26.4834H15.7031V17.3718Z" fill="#74D373"/>
<path d="M19.4586 11.9629H10.543V19.176H19.4586V11.9629Z" fill="#E4FFDF"/>
<path d="M19.4586 13.6921H10.543V14.6296H19.4586V13.6921Z" fill="#74D373"/>
<path d="M15 11.963C13.4109 11.963 12.1106 10.6627 12.1106 9.07361V6.40549C12.1106 4.81643 13.4109 3.51611 15 3.51611C16.589 3.51611 17.8893 4.81643 17.8893 6.40549V9.07361C17.8893 10.6627 16.589 11.963 15 11.963Z" fill="#E4FFDF"/>
</svg>
