<svg width="30" height="30" viewBox="0 0 30 30" fill="none" xmlns="http://www.w3.org/2000/svg">
<rect y="0.000244141" width="30" height="30" fill="#324332"/>
<path d="M29.9278 16.4651C29.8658 17.1089 29.7625 17.7406 29.6213 18.3582C28.1214 24.9154 22.3236 29.8361 15.3496 29.9957L7.9668 22.6174L20.8574 7.38306L29.9278 16.4651Z" fill="#263426"/>
<path d="M7.96747 7.38306H20.8581V22.6174H7.96747V7.38306Z" fill="white"/>
<path d="M14.4119 7.38306H20.8572V22.6174H14.4119V7.38306Z" fill="#EBEBEB"/>
<path d="M10.0176 12.7151H18.8066V14.1799H10.0176V12.7151Z" fill="#C0DAFB"/>
<path d="M14.4121 12.7151H18.8066V14.1799H14.4121V12.7151Z" fill="#A0B9D8"/>
<path d="M10.0176 10.0784H18.8066V11.5432H10.0176V10.0784Z" fill="#C0DAFB"/>
<path d="M14.4121 10.0784H18.8066V11.5432H14.4121V10.0784Z" fill="#A0B9D8"/>
<path d="M10.0176 15.3518H18.8066V16.8167H10.0176V15.3518Z" fill="#C0DAFB"/>
<path d="M14.4121 15.3518H18.8066V16.8167H14.4121V15.3518Z" fill="#A0B9D8"/>
<path d="M15.9355 21.7161L16.5691 19.84L16.6069 19.802L17.8545 21.0405L17.8119 21.0828L15.9355 21.7161Z" fill="#FFDF4C"/>
<path d="M17.2306 20.4211L15.9355 21.7162L17.8119 21.0828L17.8545 21.0405L17.2306 20.4211Z" fill="#D4B93F"/>
<path d="M16.2464 20.7838L15.9355 21.716L16.8678 21.4055L16.2464 20.7838Z" fill="#5C6B99"/>
<path d="M23.495 15.3988L22.252 14.1559L22.8736 13.5343C23.2167 13.1912 23.7733 13.1912 24.1164 13.5343C24.4597 13.8776 24.4597 14.434 24.1164 14.7774L23.495 15.3988Z" fill="#808AFF"/>
<path d="M24.1181 13.5344L22.875 14.7773L23.4966 15.3989L24.1181 14.7773C24.4614 14.4342 24.4614 13.8775 24.1181 13.5344Z" fill="#666ECC"/>
<path d="M16.5572 21.0947L15.9355 21.7161L16.8678 21.4055L16.5572 21.0947Z" fill="#455373"/>
<path d="M22.3687 14.0392L23.6117 15.282L17.8112 21.0826L16.5684 19.8395L22.3687 14.0392Z" fill="#E4FFDF"/>
<path d="M17.1895 20.4613L22.9898 14.6608L23.6112 15.2824L17.8109 21.0827L17.1895 20.4613Z" fill="#74D373"/>
</svg>
