<svg width="30" height="30" viewBox="0 0 30 30" fill="none" xmlns="http://www.w3.org/2000/svg">
<rect y="0.000244141" width="30" height="30" fill="#324332"/>
<path d="M30 15C30 14.9808 29.9994 14.9618 29.9993 14.9426C26.8868 11.8301 23.5272 8.47076 23.5272 8.47076L20.3619 11.6361L21.7539 13.0288H21.1706L16.612 8.47076L13.4466 11.6361L14.8387 13.0288H14.2554L9.6967 8.4707L6.53141 11.6361L7.92348 13.0288L5.17578 18.0047L5.914 18.7079L6.13807 22.2151L13.8815 29.9586C14.2508 29.9858 14.6237 30 15 30C23.2843 30 30 23.2843 30 15Z" fill="#263426"/>
<path d="M17.3622 15.7081L16.9465 22.215H14.9998L13.4688 14.177L17.3622 15.7081Z" fill="#666ECC"/>
<path d="M12.6367 15.7081L13.0524 22.215H14.9991V14.177L12.6367 15.7081Z" fill="#808AFF"/>
<path d="M15 7.78516C16.2368 7.78516 17.2392 8.78758 17.2392 10.0243C17.2392 11.2611 16.2368 12.2635 15 12.2635L13.5072 10.0243L15 7.78516Z" fill="#FFB600"/>
<path d="M15 7.78516V12.2635C13.7633 12.2635 12.7609 11.2611 12.7609 10.0243C12.7609 8.78758 13.7633 7.78516 15 7.78516Z" fill="#FFDA00"/>
<path d="M17.9088 13.0288V18.0047H14.9998L13.8516 15.5827L14.9998 13.0288H17.9088Z" fill="#74D373"/>
<path d="M14.9988 13.0289H12.0898V18.0047H14.9988V13.0289Z" fill="#E4FFDF"/>
<path d="M10.4462 15.7081L10.0305 22.215H8.08379L6.55273 14.177L10.4462 15.7081Z" fill="#666ECC"/>
<path d="M5.72266 15.7081L6.13832 22.215H8.08504V14.177L5.72266 15.7081Z" fill="#808AFF"/>
<path d="M8.08483 7.78516C9.32157 7.78516 10.324 8.78758 10.324 10.0243C10.324 11.2611 9.32157 12.2635 8.08483 12.2635L6.59204 10.0243L8.08483 7.78516Z" fill="#FFB600"/>
<path d="M8.0848 7.78516V12.2635C6.84806 12.2635 5.84564 11.2611 5.84564 10.0243C5.84564 8.78758 6.84806 7.78516 8.0848 7.78516Z" fill="#FFDA00"/>
<path d="M10.9928 13.0288V18.0047H8.08381L6.93555 15.5827L8.08381 13.0288H10.9928Z" fill="#74D373"/>
<path d="M8.08479 13.0289H5.17578V18.0047H8.08479V13.0289Z" fill="#E4FFDF"/>
<path d="M24.2782 15.7081L23.8625 22.215H21.9158L20.3848 14.177L24.2782 15.7081Z" fill="#666ECC"/>
<path d="M19.5527 15.7081L19.9684 22.215H21.9151V14.177L19.5527 15.7081Z" fill="#808AFF"/>
<path d="M21.9152 7.78516C23.152 7.78516 24.1544 8.78758 24.1544 10.0243C24.1544 11.2611 23.152 12.2635 21.9152 12.2635L20.4224 10.0243L21.9152 7.78516Z" fill="#FFB600"/>
<path d="M21.9152 7.78516V12.2635C20.6785 12.2635 19.6761 11.2611 19.6761 10.0243C19.6761 8.78758 20.6785 7.78516 21.9152 7.78516Z" fill="#FFDA00"/>
<path d="M24.8248 13.0288V18.0047H21.9158L20.7676 15.5827L21.9158 13.0288H24.8248Z" fill="#74D373"/>
<path d="M21.9149 13.0289H19.0059V18.0047H21.9149V13.0289Z" fill="#E4FFDF"/>
</svg>
