<svg width="30" height="30" viewBox="0 0 30 30" fill="none" xmlns="http://www.w3.org/2000/svg">
<rect width="30" height="30" fill="#324332"/>
<path d="M29.9963 15.3385L23.2032 8.54538L17.6115 16.2162L7.68555 6.29028L5.86914 23.3261L12.3008 29.7577C13.1764 29.9169 14.0785 30 15.0001 30C23.1712 30 29.8163 23.4664 29.9963 15.3385Z" fill="#263426"/>
<path d="M23.926 23.3261H5.86914V6.29028H7.68555V21.5097H23.926V23.3261Z" fill="#E4FFDF"/>
<path d="M14.9727 21.5098H23.9268V23.3262H14.9727V21.5098Z" fill="#74D373"/>
<path d="M14.336 20.3563C13.0334 20.3563 11.9334 19.7251 10.9733 18.4265C10.2211 17.4092 9.63705 16.0926 9.07227 14.8193L10.7326 14.0826L10.7326 14.0828C11.7495 16.3749 12.7099 18.5399 14.336 18.5399C15.9621 18.5399 16.9225 16.3748 17.9393 14.0826C18.5042 12.8093 19.0882 11.4927 19.8404 10.4754C20.8005 9.1767 21.9005 8.54541 23.2031 8.54541V10.3618C21.577 10.3618 20.6165 12.5269 19.5997 14.8192C19.0348 16.0925 18.4508 17.4091 17.6987 18.4264C16.7386 19.725 15.6386 20.3563 14.336 20.3563Z" fill="white"/>
<path d="M19.8413 10.4754C19.0891 11.4927 18.505 12.8093 17.9402 14.0826C17.0635 16.0589 16.2283 17.9395 14.9727 18.4206V20.3029C16.0029 20.1265 16.8997 19.5082 17.6996 18.4264C18.4517 17.4091 19.0358 16.0925 19.6006 14.8192C20.6175 12.5269 21.5779 10.3618 23.204 10.3618V8.54541C21.9014 8.54541 20.8014 9.1767 19.8413 10.4754Z" fill="#E9EDF5"/>
</svg>
