<svg width="30" height="30" viewBox="0 0 30 30" fill="none" xmlns="http://www.w3.org/2000/svg">
<rect width="30" height="30" fill="#324332"/>
<path d="M6.0332 19.6991L16.2793 29.9452C23.9647 29.2961 30.0002 22.8534 30.0002 15C30.0002 14.3612 29.96 13.7319 29.8825 13.1141L23.9276 7.15918L6.0332 19.6991Z" fill="#263426"/>
<path d="M23.9276 22.7554L20.2932 19.6991H6.0332V7.15918L23.9276 7.15924V22.7554Z" fill="#E4FFDF"/>
<path d="M14.9971 7.16016V19.7H20.2929L23.9273 22.7563V7.16016H14.9971Z" fill="#74D373"/>
<path d="M19.1586 13.5488C19.1586 13.2095 19.1171 12.8801 19.0408 12.5642L20.0647 11.973L18.8873 9.93361L17.8624 10.5254C17.387 10.0721 16.8053 9.73 16.158 9.54016V8.35791H13.8032V9.54016C13.1559 9.73 12.5742 10.0721 12.0988 10.5254L11.0739 9.93361L9.89648 11.973L10.9204 12.5642C10.8441 12.88 10.8026 13.2095 10.8026 13.5488C10.8026 13.8881 10.8441 14.2175 10.9204 14.5334L9.89648 15.1246L11.0739 17.164L12.0988 16.5722C12.5742 17.0254 13.1559 17.3676 13.8032 17.5574V18.7397H16.158V17.5574C16.8053 17.3676 17.387 17.0254 17.8624 16.5722L18.8873 17.164L20.0647 15.1246L19.0408 14.5334C19.1171 14.2175 19.1586 13.8881 19.1586 13.5488ZM14.9805 15.5856C13.8557 15.5856 12.9438 14.6737 12.9438 13.5488C12.9438 12.4239 13.8557 11.512 14.9805 11.512C16.1054 11.512 17.0173 12.4239 17.0173 13.5488C17.0173 14.6737 16.1054 15.5856 14.9805 15.5856Z" fill="#FFC000"/>
<path d="M19.0412 14.5334C19.1175 14.2175 19.159 13.8881 19.159 13.5488C19.159 13.2095 19.1175 12.8801 19.0412 12.5642L20.0651 11.973L18.8877 9.93361L17.8628 10.5254C17.3874 10.0721 16.8057 9.73 16.1584 9.54016V8.35791H14.998V11.5124C16.115 11.5216 17.0178 12.4296 17.0178 13.5487C17.0178 14.6679 16.115 15.5759 14.998 15.5851V18.7396H16.1584V17.5574C16.8057 17.3675 17.3874 17.0254 17.8628 16.5722L18.8877 17.1638L20.0651 15.1244L19.0412 14.5334Z" fill="#E5AC0A"/>
</svg>
