<svg width="130" height="130" viewBox="0 0 130 130" fill="none" xmlns="http://www.w3.org/2000/svg">
<rect x="1.5" y="1.5" width="127" height="127" rx="63.5" fill="#FAFAFA" stroke="#C5E1DB" stroke-width="3"/>
<mask id="mask0" mask-type="alpha" maskUnits="userSpaceOnUse" x="3" y="3" width="124" height="124">
<rect x="5.3999" y="5.40039" width="119.2" height="119.2" rx="59.6" fill="white" stroke="#C5E1DB" stroke-width="3"/>
</mask>
<g mask="url(#mask0)">
<path d="M73.3566 97.2246C73.1186 97.2246 72.8806 97.2246 72.6426 97.3039H72.4839L72.008 97.3833L71.532 97.4626L70.9767 97.5419L70.6594 97.6213H70.4214H70.1834H69.9454C69.3108 97.7006 68.5175 97.7799 67.8035 97.8593C67.4069 97.8593 67.0103 97.9386 66.6929 97.9386H66.3756H66.217C65.979 97.9386 65.741 98.0179 65.4237 98.0179C64.9477 98.0179 64.3924 98.0179 63.9164 98.0179H63.5198H63.1231C62.8852 98.0179 62.6472 98.0179 62.4092 98.0179C62.2505 98.0179 62.0919 98.0179 61.9332 98.0179H61.5366C61.2986 98.0179 60.9813 98.0179 60.7433 98.0179C60.188 98.0179 59.3947 97.9386 58.6014 97.8593L58.6807 97.9386L58.4427 97.8593H58.2048L57.7288 97.7799L57.2528 97.7006C57.0942 97.7006 56.8562 97.6213 56.6975 97.6213C56.5389 97.6213 56.5389 97.6213 56.4595 97.6213C56.0629 97.6213 55.6662 97.8592 55.4283 98.1766C55.3489 98.2559 55.2696 98.4145 55.1903 98.5732C55.1109 98.8112 55.1109 98.9699 55.0316 99.1285C55.0316 99.2872 55.0316 99.3665 54.9523 99.4458V99.6045L54.7936 99.6838C54.635 99.6838 54.5556 99.7631 54.397 99.7631L54.159 99.8425C53.7623 99.9218 53.2864 100.08 52.8897 100.239C52.4931 100.398 52.1758 100.715 51.8585 100.953C51.6998 101.112 51.5411 101.27 51.3825 101.429C51.3032 101.508 51.2238 101.588 51.2238 101.667C51.1445 101.746 51.1445 101.826 51.0652 101.905C51.0652 101.984 50.9858 102.064 50.9858 102.143V102.222C50.9858 102.302 50.9858 102.381 50.9858 102.46C50.9858 102.54 50.9858 102.54 50.9858 102.619C50.9858 102.936 51.1445 103.174 51.4618 103.174C51.6205 103.174 51.7791 103.016 51.8585 102.857C51.9378 102.936 52.0964 103.016 52.1758 103.095C52.3344 103.174 52.5724 103.254 52.7311 103.333C53.3657 103.492 54.0003 103.65 54.5556 103.73H54.635H54.7936C55.0316 103.73 55.1903 103.809 55.4283 103.809C55.9042 103.888 56.3802 103.888 56.8562 103.968C57.4115 104.047 57.8874 104.047 58.4427 104.126H58.5221C59.1567 104.206 59.8707 104.285 60.664 104.364H61.1399C61.3779 104.364 61.6159 104.364 61.9332 104.444H62.4092C62.6472 104.444 62.8852 104.444 63.1231 104.444C63.5198 104.444 63.9164 104.444 64.3924 104.444C64.789 104.444 65.1857 104.444 65.5823 104.444C65.979 104.444 66.3756 104.444 66.7723 104.444H67.0896H67.4069C67.5656 104.444 67.7242 104.444 67.8829 104.444H68.1209C68.2795 104.444 68.5175 104.444 68.6762 104.444C68.8348 104.444 69.0728 104.444 69.2315 104.444C69.3901 104.444 69.4694 104.444 69.6281 104.444H69.9454C70.1834 104.444 70.3421 104.443 70.5801 104.364H71.1354C71.3733 104.364 71.6113 104.364 71.8493 104.285C72.1666 104.285 72.4839 104.206 72.8013 104.206H72.9599C73.2772 104.126 73.5945 104.126 73.9119 104.126C74.1498 104.126 74.4672 104.047 74.7051 104.047H74.8638H75.0225L75.7364 103.968H75.8951L77.085 103.809C77.4023 103.73 77.799 103.73 78.1163 103.73C78.1956 103.73 78.3543 103.73 78.4336 103.73H78.5923C78.8302 103.73 78.9889 103.65 79.0682 103.571C79.2269 103.492 79.3062 103.333 79.3062 103.254C79.3062 103.095 79.3062 103.016 79.3062 102.857C79.3062 102.778 79.2269 102.619 79.1476 102.54C78.9889 102.222 78.7509 101.984 78.5129 101.746L78.2749 101.508C78.1163 101.35 77.8783 101.191 77.7196 101.032C77.4817 100.874 77.2437 100.715 77.0057 100.556C76.847 100.477 76.6884 100.398 76.609 100.318C76.5297 100.239 76.3711 100.239 76.2917 100.16L76.1331 100.08C75.9744 100.001 75.8158 100.001 75.6571 99.9218H75.5778L75.2605 99.8425C75.1811 99.8425 75.1811 99.7631 75.1811 99.7631V99.6838C75.1811 99.6045 75.1811 99.5252 75.1018 99.5252C75.0225 99.4458 75.0225 99.2871 74.9431 99.2078L74.8638 99.1285C74.8638 99.0492 74.7845 98.8905 74.7051 98.7319C74.7051 98.6525 74.6258 98.6525 74.6258 98.5732C74.6258 98.5732 74.6258 98.4939 74.5465 98.4939C74.4672 98.3352 74.4672 98.2559 74.3878 98.1766C74.3085 98.0972 74.1498 98.0179 73.9912 98.0179C73.9119 98.0179 73.8325 98.0179 73.7532 97.9386H73.6739C73.5152 97.2246 73.4359 97.2246 73.3566 97.2246Z" fill="#3E768C"/>
<path d="M64.5513 64.7001C64.3926 65.3348 64.1547 65.8901 63.8373 66.4454C63.5994 67.08 63.282 67.7146 63.0441 68.4286C62.8061 69.0632 62.5681 69.6978 62.4888 70.3325C62.4094 70.6498 62.4094 70.9671 62.4094 71.2051C62.4094 71.5224 62.4094 71.7604 62.4888 72.0777C62.5681 72.5537 62.8061 73.0297 63.1234 73.347C63.4407 73.6643 63.8373 73.8229 64.3133 73.9816C64.5513 74.0609 64.7893 74.0609 65.0273 74.1403C65.2653 74.1403 65.5032 74.1403 65.7412 74.1403C66.2172 74.1403 66.7725 74.0609 67.2485 74.0609C67.3278 74.0609 67.4865 74.0609 67.5658 73.9023C67.6451 73.8229 67.6451 73.7436 67.6451 73.585C67.6451 73.5056 67.5658 73.347 67.5658 73.2677C67.4865 73.1883 67.4071 73.109 67.2485 73.1883C66.4552 73.2676 65.5826 73.347 64.7893 73.2677H64.8686C64.6306 73.2677 64.3926 73.1883 64.0753 73.109C63.9167 73.0297 63.8373 72.9503 63.758 72.871C63.6787 72.7917 63.5994 72.7123 63.52 72.633C63.4407 72.5537 63.4407 72.4744 63.3614 72.3157C63.282 72.157 63.282 71.9984 63.2027 71.8397C63.2027 71.5224 63.2027 71.2051 63.2027 70.8878C63.3614 69.8565 63.758 68.8252 64.1547 67.8733C64.5513 66.842 65.0273 65.8901 65.3446 64.8588C65.4239 64.6208 65.2653 64.3828 65.0273 64.3828H64.9479C64.7893 64.3828 64.6306 64.5415 64.5513 64.7001ZM63.282 70.8085C63.282 70.8085 63.282 70.8878 63.282 70.8085C63.282 70.8878 63.282 70.8085 63.282 70.8085Z" fill="#2C2C2C"/>
<path d="M54.8734 71.2054C55.984 71.2054 56.8566 70.0154 56.8566 68.4288C56.8566 66.9216 55.984 65.6523 54.8734 65.6523C53.7628 65.6523 52.8901 66.8423 52.8901 68.4288C52.9695 69.9361 53.8421 71.2054 54.8734 71.2054Z" fill="#2C2C2C"/>
<path d="M75.8153 70.7288C74.7046 70.7288 73.832 69.5389 73.832 67.9523C73.832 66.445 74.7046 65.1758 75.8153 65.1758C76.9259 65.1758 77.7985 66.3657 77.7985 67.9523C77.7191 69.5389 76.8465 70.7288 75.8153 70.7288Z" fill="#2C2C2C"/>
<path d="M54.7142 58.75C54.3969 58.75 54.0796 58.75 53.7623 58.8293C53.445 58.9087 53.0483 58.988 52.731 59.0673C51.5411 59.3847 50.4305 60.0986 49.6372 61.0506C49.4785 61.2092 49.4785 61.4472 49.4785 61.6852C49.4785 61.9232 49.6372 62.0818 49.7958 62.2405C49.9545 62.3992 50.1925 62.3991 50.4305 62.3991C50.6684 62.3991 50.8271 62.2405 50.9858 62.0818C50.9858 62.0818 50.9858 62.0818 51.0651 62.0025C51.3824 61.6852 51.6997 61.4472 52.0964 61.2092C52.493 60.9712 52.969 60.8126 53.445 60.6539C53.8416 60.5746 54.2382 60.4952 54.6349 60.4952C54.9522 60.4952 55.3488 60.4953 55.6662 60.5746C55.7455 60.5746 55.8248 60.6539 55.9041 60.6539C56.3008 60.8126 56.7768 60.6539 56.9354 60.1779C57.0941 59.7813 56.9354 59.226 56.4594 59.1466C55.9041 58.8293 55.3488 58.75 54.7142 58.75ZM53.445 60.5746H53.3656C53.3656 60.5746 53.3656 60.5746 53.445 60.5746ZM51.1444 61.7645L51.0651 61.8438C51.0651 61.8438 51.1444 61.8438 51.1444 61.7645Z" fill="#2C2C2C"/>
<path d="M75.4184 58.2744C75.7357 58.2744 76.053 58.2744 76.3703 58.3537C76.6876 58.4331 77.0843 58.5124 77.4016 58.5917C78.5915 58.909 79.7021 59.623 80.4954 60.5749C80.6541 60.7336 80.6541 60.9716 80.6541 61.2096C80.6541 61.4476 80.4954 61.6062 80.3368 61.7649C80.1781 61.9235 79.9401 61.9235 79.7021 61.9235C79.4641 61.9235 79.3055 61.7649 79.1468 61.6062C79.1468 61.6062 79.1468 61.6062 79.0675 61.5269C78.7502 61.2096 78.4329 60.9716 78.0362 60.7336C77.6396 60.4956 77.1636 60.337 76.6876 60.1783C76.291 60.099 75.8944 60.0196 75.4977 60.0196C75.1804 60.0196 74.7838 60.0196 74.4664 60.099C74.3871 60.099 74.3078 60.1783 74.2285 60.1783C73.8318 60.337 73.3558 60.1783 73.1972 59.7023C73.0385 59.3057 73.1972 58.7504 73.6732 58.6711C74.2285 58.4331 74.7838 58.2744 75.4184 58.2744ZM76.6876 60.099H76.767C76.767 60.1783 76.6876 60.099 76.6876 60.099ZM78.9088 61.3682L78.9882 61.4476C78.9882 61.4476 78.9882 61.3682 78.9088 61.3682Z" fill="#2C2C2C"/>
<path d="M63.3611 22.1006H63.1231C61.5365 22.1006 59.8706 22.2592 58.1254 22.6559C56.3802 23.0525 54.6349 23.6078 52.8897 24.4011C51.2238 25.1151 49.6372 26.067 48.2093 27.257C46.7814 28.3676 45.5915 29.6368 44.5602 31.1441C43.5289 32.572 42.815 34.2379 42.4183 35.9831C42.1803 36.8557 42.1803 37.8077 42.101 38.7596C42.101 39.2356 42.0217 39.7909 42.0217 40.2669H41.9423C41.387 40.2669 40.8317 40.3462 40.3558 40.4255C39.7211 40.5842 39.1658 40.7428 38.6105 41.0602C37.6586 41.6155 36.786 42.4088 36.072 43.5194C35.4374 44.4713 35.0407 45.6612 34.7234 47.0891C34.4854 48.2791 34.3268 49.707 34.2475 51.2142C34.2475 52.4835 34.3268 53.7528 34.4061 55.1014C34.5648 56.2913 34.7234 57.4812 34.9614 58.6712C35.1994 59.7818 35.5167 60.813 35.9134 61.9236C36.786 64.2242 37.6586 65.8901 38.8485 67.2387C38.6105 67.556 38.2932 67.9526 38.0552 68.3493C37.7379 68.9046 37.4206 69.5392 37.2619 70.2531C36.8653 71.6811 36.9446 73.109 37.4206 74.2989C37.4999 74.5369 37.6586 74.8542 37.8172 75.0922C37.9759 75.3302 38.1346 75.5682 38.2932 75.8062C38.7692 76.3615 39.3245 76.8374 40.0385 77.3134C40.7524 77.7101 41.5457 78.0274 42.4183 78.186C42.7356 78.2653 43.1323 78.2654 43.5289 78.2654C43.9256 78.2654 44.3222 78.2653 44.7982 78.186C44.7982 78.5827 44.7982 78.9 44.8775 79.2966C44.9568 80.4866 45.1948 81.5178 45.4328 82.4698C45.5915 82.9458 45.7501 83.3424 45.9881 83.8184C46.1468 84.215 46.4641 84.6117 46.7814 85.167C47.7333 86.5155 49.0819 87.7848 50.6685 88.8161C52.0964 89.768 53.683 90.482 55.6662 91.0373C56.3008 91.1959 56.9355 91.4339 57.5701 91.5133C57.5701 92.2272 57.5701 92.9412 57.4908 93.7345C57.3321 94.8451 57.0148 95.9557 56.6182 96.9869C56.5388 96.9869 56.5388 96.9869 56.4595 96.9869C56.3802 96.9869 56.2215 96.9869 56.1422 96.9869C56.0629 96.9869 55.9835 96.9076 55.9042 96.9076C55.8249 96.9076 55.7455 96.9076 55.6662 96.9869C55.4282 97.2249 55.1902 97.3836 55.0316 97.6216C54.8729 97.8596 54.7936 98.1769 54.7143 98.4942C54.7143 98.6528 54.7143 98.7322 54.6349 98.8908C54.6349 99.0495 54.6349 99.2082 54.6349 99.3668C54.2383 99.3668 53.8417 99.5255 53.5243 99.6048C53.0484 99.7634 52.4931 100.001 51.9378 100.319C51.4618 100.636 50.9858 101.033 50.6685 101.429C50.5098 101.588 50.4305 101.826 50.2719 102.064C50.1925 102.223 50.1925 102.461 50.1132 102.619C50.0339 102.699 50.0339 102.699 50.0339 102.778C49.5579 102.937 49.0819 103.095 48.606 103.254C48.0507 103.413 47.416 103.651 46.8607 103.809L45.5121 104.206C43.6876 104.761 41.625 105.475 39.5625 106.427C37.5793 107.379 35.7547 108.49 34.1681 109.918C32.5815 111.266 31.1536 113.011 29.9637 114.995C28.9324 116.74 28.0598 118.644 27.2665 120.944C26.6319 122.848 26.1559 124.99 25.7593 127.37C25.3626 129.67 25.204 131.971 24.966 134.43C24.728 137.048 24.5693 139.745 24.49 142.363C24.252 147.519 24.252 152.596 24.49 157.435H25.2833C25.442 152.834 25.442 148.075 25.6006 143.236C25.6799 140.856 25.8386 138.317 25.9973 135.779C26.0766 134.509 26.2352 133.24 26.3146 132.05C26.3939 130.86 26.5526 129.829 26.6319 128.798C27.1872 124.911 27.9805 121.579 29.2497 118.644C30.1224 116.581 31.1536 114.757 32.4229 113.17C33.5335 111.821 34.7234 110.552 36.072 109.521C36.786 108.966 37.6586 108.41 38.4519 107.934C39.2452 107.458 40.1178 107.062 41.1491 106.586C43.0529 105.792 44.9568 105.237 47.0987 104.523C48.13 104.206 49.1613 103.889 50.1925 103.571C50.5098 103.492 50.7478 103.413 50.9858 103.333C51.3825 103.413 51.8584 103.571 52.2551 103.651C53.5243 103.968 54.8729 104.206 56.2215 104.365H56.3008C58.0461 104.603 59.95 104.761 61.7745 104.92C62.7265 104.999 63.5991 104.999 64.551 104.999C64.8684 104.999 65.1857 104.999 65.503 104.999C66.9309 104.999 68.4382 104.92 69.8661 104.84C71.056 104.761 72.1666 104.682 73.2772 104.523H73.3565H73.4359C74.2292 104.444 74.9431 104.285 75.6571 104.206C76.2917 104.127 76.847 103.968 77.323 103.889C77.799 103.809 78.2749 103.73 78.6716 103.571L78.9096 103.492L79.3062 103.651L79.7822 103.809C80.8134 104.127 81.8447 104.444 82.876 104.761C85.0179 105.396 86.9218 106.03 88.8256 106.824C89.8569 107.22 90.7295 107.696 91.5228 108.172C92.3954 108.648 93.1887 109.204 93.9027 109.759C95.2513 110.79 96.4412 111.98 97.5518 113.408C98.7417 114.995 99.8523 116.898 100.725 118.882C101.994 121.817 102.788 125.149 103.343 129.036C103.501 130.067 103.581 131.098 103.66 132.288C103.739 133.558 103.898 134.827 103.977 136.017C104.136 138.555 104.295 141.094 104.374 143.474C104.533 148.233 104.533 152.914 104.295 157.277H105.088C105.326 152.517 105.326 147.519 105.088 142.442C105.009 139.824 104.85 137.207 104.612 134.509C104.374 131.971 104.215 129.67 103.819 127.449C103.422 125.069 102.946 122.927 102.312 121.024C101.518 118.723 100.646 116.819 99.6144 115.074C98.4244 113.091 96.9965 111.345 95.4099 109.997C93.8234 108.648 91.9988 107.458 90.0156 106.506C88.0324 105.554 85.8905 104.84 84.0659 104.285L82.7173 103.889C82.162 103.73 81.5274 103.492 80.9721 103.333C80.4961 103.175 80.0995 103.095 79.7028 102.937V102.857C79.7028 102.699 79.7028 102.619 79.7028 102.619C79.5442 102.143 79.3062 101.747 79.0682 101.35C78.7509 100.953 78.4336 100.557 77.9576 100.16C77.1643 99.5255 76.2917 99.0495 75.4191 98.8115C75.4191 98.5735 75.3398 98.4149 75.2604 98.1769C75.0224 97.5422 74.6258 96.987 74.3085 96.6696C74.2291 96.5903 74.0705 96.511 73.9912 96.511C73.9118 96.511 73.9118 96.511 73.8325 96.511C73.8325 96.511 73.7532 96.511 73.6738 96.511C73.6738 96.511 73.5945 96.511 73.5152 96.511H73.4359H73.3565H73.1185H72.9599C72.6426 95.6384 72.4046 94.6864 72.2459 93.7345C72.1666 92.8618 72.0873 92.0686 72.1666 91.2753C74.0705 90.8786 75.8157 90.3233 77.4816 89.6887C79.4649 88.8954 81.1308 87.9435 82.4793 86.8329C82.7967 86.5949 83.114 86.2776 83.4313 85.9603C83.7486 85.6429 84.0659 85.167 84.3832 84.691C84.6212 84.2943 84.7799 83.8977 85.0179 83.3424C85.1765 82.8664 85.3352 82.3904 85.4938 81.7558C85.6525 81.0419 85.7318 80.3279 85.8112 79.6933C85.8905 79.0587 85.9698 78.5033 85.9698 77.8687C85.9698 77.8687 86.0491 77.8687 86.0491 77.948C86.5251 78.0274 87.0011 78.1067 87.4771 78.1067C87.8737 78.1067 88.191 78.1067 88.5877 78.0274C89.4603 77.8687 90.2536 77.6307 90.9675 77.1548C91.6815 76.7581 92.3161 76.2028 92.7128 75.6475C92.8714 75.4095 93.1094 75.1715 93.1887 74.9336C93.3474 74.6956 93.4267 74.4576 93.5854 74.1403C94.0613 72.9503 94.1407 71.4431 93.744 70.0945C93.5854 69.3805 93.2681 68.7459 92.9507 68.1906C92.6334 67.556 92.2368 67.0007 91.7608 66.604C91.6021 66.4454 91.3642 66.2867 91.2055 66.1281C91.8401 65.1761 92.2368 64.0655 92.6334 63.1135C93.0301 62.1616 93.3474 61.1303 93.5854 60.0197C94.1407 57.9572 94.458 55.736 94.6166 53.5148C94.7753 51.2936 94.6167 49.0724 94.2993 46.9305C93.982 44.7886 93.3474 42.7261 92.5541 40.7428C92.3161 40.1875 91.9988 39.5529 91.6815 38.9976C92.0781 38.363 92.3954 37.7283 92.7128 37.0144C93.744 34.7139 94.2993 32.6513 94.2993 30.6681C94.2993 30.0335 94.22 29.4782 94.1407 28.9229C94.0613 28.5262 93.9027 28.1296 93.6647 27.8916C93.4267 27.5743 93.1887 27.3363 92.8714 27.1776C92.5541 27.019 92.2368 26.8603 91.7608 26.781C91.2848 26.7017 90.8089 26.6223 90.2536 26.6223C89.8569 26.6223 89.4603 26.6223 89.143 26.7016C88.429 26.781 87.6357 26.8603 86.9218 26.9396L86.3665 27.019C85.8905 27.0983 85.3352 27.1776 84.8592 27.1776C84.7799 27.1776 84.6212 27.1776 84.5419 27.1776C84.3039 27.1776 84.0659 27.1776 83.7486 27.1776C83.2726 27.1776 82.7967 27.0983 82.3207 27.019C79.3855 26.6223 76.609 25.591 73.9912 24.5598C72.5632 24.0045 71.1353 23.5285 69.7074 23.0525C67.4862 22.4179 65.4237 22.1006 63.3611 22.1006ZM48.4473 55.022C48.7646 52.7215 49.1613 50.3416 49.7166 47.8031C54.8729 49.469 59.5533 50.4209 63.9957 50.8176C65.1857 50.8969 66.4549 50.9763 67.6449 50.9763C68.9141 50.9763 70.1834 50.8969 71.4526 50.8176C73.9118 50.5796 76.371 50.1036 78.6716 49.3103C79.8615 48.9137 80.9721 48.5171 82.0034 48.0411C82.5587 50.5796 82.9553 52.8802 83.2726 55.1014C83.59 57.2432 83.7486 59.3058 83.8279 61.289C83.9073 62.3203 83.9073 63.4309 83.9073 64.6208C83.9073 65.3348 83.9073 66.0487 83.9866 66.6833L84.0659 67.6353C84.2246 70.4911 84.3039 73.4263 83.9073 76.3615C83.6693 77.8687 83.352 79.2173 82.876 80.3279C82.5587 81.1212 82.162 81.7558 81.6861 82.3905C81.4481 82.7078 81.1308 83.0251 80.8134 83.3424C80.4168 83.6597 80.0202 83.8184 79.6235 84.0564C79.1475 84.215 78.6716 84.3737 78.1163 84.453C77.7196 84.5323 77.4816 84.5323 77.1643 84.5323C76.7677 84.5323 76.371 84.5323 75.8951 84.453C74.8638 84.2943 73.8325 83.977 72.8012 83.5804C71.6906 83.1044 70.6594 82.4698 69.7074 81.7558C69.3901 81.5178 68.9141 81.1212 68.4382 80.6452C68.3588 80.5659 68.2795 80.5659 68.2002 80.5659C68.2002 80.5659 68.1208 80.4866 68.0415 80.4866C67.0896 80.2486 66.2963 80.1692 65.503 80.1692C64.8684 80.1692 64.2337 80.2486 63.6784 80.4072C63.5991 80.4072 63.5991 80.4072 63.5198 80.4866C63.4404 80.4866 63.3611 80.5659 63.3611 80.5659C62.9645 80.9625 62.5678 81.3592 62.1712 81.6765C62.1712 81.6765 62.1712 81.6765 62.0919 81.7558C61.2192 82.3904 60.188 83.0251 59.0774 83.5011C58.0461 83.8977 57.0148 84.215 55.9835 84.3737H55.9042C55.5076 84.3737 55.1109 84.453 54.7143 84.453C54.397 84.453 54.0796 84.453 53.8417 84.3737C53.2864 84.2943 52.7311 84.1357 52.2551 83.977C51.8584 83.8184 51.4618 83.5804 51.0651 83.2631C50.7478 83.0251 50.4305 82.7078 50.1925 82.3111C49.7166 81.6765 49.3199 81.0419 49.0026 80.2486C48.5266 79.138 48.2093 77.7894 47.9713 76.2821C47.5747 73.347 47.7333 70.3325 47.8127 67.4766V66.5247C47.8127 65.8107 47.892 65.0968 47.892 64.4621C47.892 63.2722 47.9713 62.1616 47.9713 61.1303C47.9713 59.2264 48.13 57.1639 48.4473 55.022ZM40.5144 66.7627C40.8317 66.5247 41.1491 66.366 41.4664 66.2074C41.7837 66.0487 42.101 65.9694 42.339 65.9694C42.4183 65.9694 42.577 65.9694 42.6563 65.9694C42.815 65.9694 42.8943 65.9694 43.0529 65.9694C43.2909 65.9694 43.5289 66.0487 43.7669 66.1281C44.0049 66.2074 44.1635 66.366 44.4015 66.5247C44.6395 66.7627 44.8775 67.0007 45.1155 67.2387C45.1155 67.7146 45.0362 68.2699 45.0362 68.8252V68.9046V68.9839C44.8775 68.8252 44.7982 68.6666 44.6395 68.5873C44.2429 68.2699 43.7669 68.0319 43.2909 67.8733C42.9736 67.7939 42.6563 67.7146 42.2597 67.7146C42.101 67.7146 41.9423 67.7146 41.7837 67.7146C41.2284 67.794 40.6731 68.0319 40.1971 68.3493C40.1178 68.4286 40.0385 68.5079 40.0385 68.5873C40.0385 68.6666 40.0385 68.8252 40.1178 68.9046C40.1971 69.0632 40.3558 69.1425 40.5144 69.1425C40.5938 69.1425 40.6731 69.1425 40.6731 69.0632C40.9111 68.9045 41.0697 68.7459 41.3077 68.6666C41.5457 68.5872 41.7044 68.5079 41.9423 68.5079C42.0217 68.5079 42.1803 68.5079 42.2597 68.5079C42.4183 68.5079 42.4976 68.5079 42.6563 68.5079C42.8943 68.5872 43.1323 68.5872 43.3703 68.7459C43.6082 68.8252 43.8462 68.9839 44.0842 69.1425C44.3222 69.3012 44.5602 69.5392 44.7188 69.7772C44.7982 69.9358 44.8775 70.0152 45.0362 70.1738L45.1155 70.2531C45.1155 70.4118 45.1155 70.4911 45.1155 70.6498C45.1155 71.1258 45.1155 71.6811 45.1155 72.157V72.633C45.1155 73.347 45.1155 73.9816 45.0362 74.6956C45.0362 75.4888 44.9568 76.3615 44.9568 77.1548C44.8775 77.1548 44.7982 77.1548 44.7188 77.1548H44.6395C44.4015 77.1548 44.0842 77.2341 43.8462 77.2341C43.6082 77.2341 43.2909 77.2341 43.0529 77.1548C42.4976 77.0754 41.9423 76.9168 41.4664 76.7581C40.9904 76.5201 40.5144 76.2821 40.1178 75.9648C39.7211 75.6475 39.4038 75.3302 39.1658 75.0129C38.9278 74.6162 38.6899 74.2989 38.5312 73.9816C38.3725 73.585 38.2139 73.109 38.2139 72.633C38.1346 72.157 38.1346 71.6017 38.2139 71.1258C38.2932 70.5705 38.4519 69.9358 38.6899 69.3805C38.9278 68.8252 39.2452 68.2699 39.6418 67.7146C39.7211 67.3973 40.1178 67.08 40.5144 66.7627ZM86.9218 66.604C87.1597 66.4454 87.3184 66.2867 87.5564 66.2074C87.7944 66.1281 88.0324 66.0487 88.2703 66.0487C88.429 66.0487 88.5083 66.0487 88.667 66.0487C88.7463 66.0487 88.905 66.0487 88.9843 66.0487C89.3016 66.1281 89.6189 66.2074 89.8569 66.2867C90.2536 66.4454 90.5709 66.6834 90.8089 66.842L90.7295 66.7627C91.1262 67.08 91.5228 67.4766 91.8401 67.8733C92.2368 68.4286 92.5541 68.9839 92.7921 69.5392C93.0301 70.0945 93.1887 70.7291 93.2681 71.2844C93.3474 71.7604 93.3474 72.3157 93.2681 72.7917C93.1887 73.2676 93.1094 73.7436 92.9507 74.1403C92.7921 74.4576 92.6334 74.8542 92.3161 75.1715C91.9988 75.5682 91.6815 75.8855 91.2848 76.1235C90.8089 76.4408 90.4122 76.6788 89.9363 76.9168C89.381 77.1548 88.905 77.2341 88.3497 77.3134C88.1117 77.3134 87.7944 77.3927 87.5564 77.3927C87.2391 77.3927 87.0011 77.3927 86.6838 77.3134L86.4458 77.2341C86.3665 77.2341 86.2871 77.2341 86.2871 77.2341C86.2078 77.2341 86.2078 77.2341 86.1285 77.2341C86.2871 75.6475 86.2871 73.9023 86.3665 71.8397C86.3665 71.2844 86.3665 70.7291 86.3665 70.1738C86.4458 70.0152 86.5251 69.9358 86.6044 69.7772C86.7631 69.5392 87.0011 69.3012 87.2391 69.1425C87.4771 68.9839 87.715 68.8252 87.953 68.7459C88.191 68.6666 88.429 68.5872 88.667 68.5079C88.8256 68.5079 88.905 68.5079 89.0636 68.5079C89.143 68.5079 89.3016 68.5079 89.381 68.5079C89.6189 68.5079 89.7776 68.5872 90.0156 68.6666C90.2536 68.7459 90.4915 68.9045 90.6502 69.0632C90.7295 69.1425 90.8089 69.1425 90.8089 69.1425C90.9675 69.1425 91.1262 69.0632 91.2055 68.9046C91.2848 68.8252 91.2848 68.6666 91.2848 68.5873C91.2848 68.5079 91.2055 68.4286 91.1262 68.3493C90.6502 67.9526 90.0949 67.794 89.5396 67.7146C89.381 67.7146 89.2223 67.7146 89.0636 67.7146C88.667 67.7146 88.3497 67.7939 88.0324 67.8733C87.5564 68.0319 87.0804 68.2699 86.6838 68.5873C86.6044 68.6666 86.4458 68.7459 86.3665 68.9046C86.3665 68.2699 86.3665 67.6353 86.3665 67.0007C86.6044 66.9213 86.7631 66.7627 86.9218 66.604ZM65.027 92.2272C65.5823 92.2272 66.1376 92.2272 66.7722 92.2272C68.3588 92.1479 70.0247 91.9892 71.6906 91.6719C71.6113 92.5445 71.6906 93.4172 71.77 94.2898C71.9286 95.2417 72.1666 96.035 72.4046 96.8283H72.0873C71.4526 96.9076 70.8973 96.9869 70.342 96.9869H70.1041H69.9454C69.3108 97.0663 68.7555 97.0663 68.2795 97.1456C66.8516 97.2249 65.4237 97.3043 63.9957 97.3043C63.5198 97.3043 63.1231 97.3043 62.6472 97.3043H62.5678H62.4885H62.4092C61.6952 97.3043 60.9812 97.2249 60.2673 97.2249C60.188 97.2249 60.1086 97.2249 60.0293 97.2249C59.5533 97.2249 59.0774 97.1456 58.6807 97.1456H58.4427H58.2841C58.0461 97.1456 57.8081 97.0663 57.5701 97.0663C57.6494 96.9076 57.7288 96.749 57.7288 96.5903C58.0461 95.797 58.2841 94.9244 58.3634 93.9725C58.5221 93.1792 58.5221 92.3859 58.5221 91.5926C59.3947 91.7513 60.3466 91.9099 61.2986 91.9892C62.4885 92.1479 63.7578 92.2272 65.027 92.2272ZM63.9957 98.1769C65.4237 98.1769 66.8516 98.0975 68.2002 98.0182C68.8348 98.0182 69.4694 97.9389 70.1041 97.8596H70.342H70.5007C71.056 97.7802 71.532 97.7802 72.0079 97.7009H72.2459H72.4839C72.9599 97.6216 73.3565 97.5423 73.7532 97.5423H73.8325H73.9118L74.0705 97.6216C74.3085 97.9389 74.4671 98.1769 74.5465 98.4942C74.6258 98.6528 74.7051 98.8908 74.7051 99.0495C74.7051 99.1288 74.7051 99.2875 74.7051 99.3668C74.7051 99.4461 74.6258 99.6048 74.6258 99.6841C74.6258 99.7635 74.5465 99.8428 74.4671 99.9221C74.3878 100.001 74.3085 100.081 74.2292 100.16C74.0705 100.239 73.9118 100.319 73.7532 100.398C73.5152 100.477 73.2772 100.557 72.9599 100.636C72.8806 100.636 72.7219 100.715 72.7219 100.795C72.6426 100.874 72.6426 101.033 72.6426 101.112C72.6426 101.191 72.7219 101.271 72.8012 101.35C72.8806 101.35 72.9599 101.429 73.0392 101.429C73.0392 101.429 73.1185 101.429 73.1979 101.429C73.8325 101.35 74.3085 101.112 74.7051 100.874C75.0224 100.636 75.2604 100.319 75.4191 99.9221C75.6571 100.001 75.8951 100.081 76.133 100.16C76.5297 100.319 76.9263 100.557 77.323 100.874C77.7196 101.191 78.0369 101.509 78.3542 101.905C78.5922 102.223 78.7509 102.54 78.9096 102.857L78.9889 102.937H78.9096H78.8302H78.7509H78.6716L78.5129 103.016C78.0369 103.095 77.6403 103.175 77.2436 103.254C76.6883 103.333 76.2124 103.492 75.6571 103.571C75.1018 103.651 74.5465 103.73 73.9912 103.809H73.6738H73.3565C72.1666 103.968 70.9767 104.047 69.8661 104.127C68.3588 104.206 66.8516 104.285 65.3443 104.285C65.027 104.285 64.7097 104.285 64.3131 104.285C63.4404 104.285 62.6472 104.206 61.7745 104.206C60.0293 104.127 58.4427 103.968 56.8561 103.73L56.5388 103.651H56.3802C55.0316 103.413 53.683 103.175 52.4137 102.937C51.9378 102.857 51.5411 102.699 51.0651 102.619C51.0651 102.54 51.0652 102.54 51.1445 102.461C51.2238 102.302 51.3031 102.143 51.3825 101.985C51.5411 101.747 51.7791 101.588 51.9378 101.35C52.2551 101.112 52.6517 100.874 53.0484 100.636L53.1277 100.557C53.5243 100.398 53.921 100.239 54.3176 100.16C54.4763 100.16 54.6349 100.081 54.7936 100.081H54.9523C55.1109 100.319 55.2696 100.477 55.5076 100.636C55.7455 100.795 55.9835 100.874 56.2215 100.953C56.6975 101.112 57.1735 101.191 57.8081 101.191C57.9668 101.191 58.0461 101.112 58.1254 101.033C58.2047 100.953 58.2841 100.795 58.2047 100.715C58.2047 100.477 57.9668 100.319 57.7288 100.319H57.5701C57.4115 100.319 57.3321 100.319 57.1735 100.319C56.7768 100.319 56.5388 100.239 56.2215 100.16C56.0629 100.081 55.9042 100.001 55.7455 99.9221C55.6662 99.8428 55.5869 99.7635 55.5076 99.6841C55.4282 99.6048 55.4282 99.5255 55.3489 99.4461C55.2696 99.3668 55.2696 99.2082 55.2696 99.1288C55.2696 99.0495 55.2696 98.8908 55.2696 98.8115C55.2696 98.6528 55.3489 98.4942 55.3489 98.3355C55.4282 98.1769 55.4282 98.0976 55.5076 97.9389C55.5869 97.8596 55.6662 97.7802 55.7455 97.7009C55.9835 97.7009 56.1422 97.7802 56.3802 97.7802H56.4595C56.9355 97.8596 57.4908 97.8596 57.9668 97.9389H58.0461C58.6014 98.0182 59.0774 98.0182 59.6327 98.0182C59.7913 98.0182 59.8706 98.0182 60.0293 98.0182C60.6639 98.0182 61.2192 98.0975 61.8539 98.0975H62.1712H62.4092C63.2024 98.1769 63.5991 98.1769 63.9957 98.1769Z" fill="#2C2C2C"/>
<path d="M68.2 74.3779C67.8034 74.3779 67.4067 74.3779 67.0101 74.4573C66.4548 74.5366 65.8995 74.6953 65.3442 74.9332C65.2649 74.9332 65.2649 74.9332 65.2649 75.0126C64.7096 74.7746 64.1543 74.6159 63.599 74.5366C63.2023 74.4573 62.8057 74.4573 62.409 74.4573C62.2504 74.4573 62.0917 74.4573 61.9331 74.4573C60.9018 74.5366 59.8705 74.7746 58.7599 75.3299C57.8873 75.7265 56.9353 76.3612 56.0627 77.1544C55.2694 77.8684 54.4762 78.6617 53.7622 79.6136C53.6829 79.693 53.6829 79.7723 53.6829 79.931C53.6829 80.0896 53.7622 80.1689 53.9208 80.2483C54.3968 80.4863 54.8728 80.6449 55.5074 80.6449C55.8247 80.6449 56.1421 80.6449 56.4594 80.5656C57.6493 80.3276 58.6806 79.8516 59.5532 79.5343C60.3465 79.1377 61.1398 78.741 62.0124 78.265C62.647 77.8684 63.2023 77.5511 63.7576 77.1544C64.2336 76.8371 64.7096 76.4405 65.2649 75.9645C65.7408 76.3612 66.2168 76.7578 66.6928 77.1544C66.8514 77.2338 67.0101 77.3924 67.1687 77.4718C67.1687 77.5511 67.0894 77.6304 67.0894 77.7098C67.0101 77.8684 66.9308 77.9477 66.8514 78.0271C66.6928 78.1857 66.5341 78.3444 66.3755 78.4237C66.2168 78.503 66.0581 78.5824 65.8995 78.6617C65.6615 78.741 65.5028 78.741 65.3442 78.741C65.1855 78.741 65.0269 78.741 64.9475 78.741C64.8682 78.741 64.7096 78.6617 64.6302 78.6617C64.5509 78.5824 64.4716 78.5824 64.3922 78.503C64.3129 78.4237 64.2336 78.3444 64.1543 78.265C64.0749 78.1857 63.9956 78.0271 63.9956 77.9477C63.9163 77.7891 63.7576 77.7098 63.599 77.7098C63.5196 77.7098 63.4403 77.7097 63.4403 77.7891C63.2023 77.8684 63.123 78.1064 63.2816 78.3444C63.361 78.5824 63.5196 78.8203 63.7576 79.0583C63.9163 79.217 64.1543 79.3757 64.3922 79.5343C64.7096 79.693 65.0269 79.7723 65.4235 79.7723C65.5822 79.7723 65.7408 79.7723 65.8995 79.7723C66.1375 79.7723 66.3755 79.693 66.6134 79.5343C66.8514 79.455 67.0894 79.2963 67.2481 79.1377C67.4067 78.979 67.5654 78.8203 67.8034 78.5824C67.8827 78.4237 68.0414 78.2651 68.0414 78.0271C68.2 78.1857 68.438 78.265 68.5967 78.3444C69.4693 78.8203 70.1832 79.217 71.0559 79.6136C71.8491 80.0103 72.9597 80.4863 74.1497 80.6449C74.467 80.7242 74.7843 80.7242 75.1016 80.7242C75.7363 80.7242 76.2916 80.5656 76.6882 80.3276C76.8469 80.2483 76.9262 80.0896 76.9262 80.0103C76.9262 79.931 76.9262 79.7723 76.8469 79.693C76.1329 78.741 75.3396 77.8684 74.5463 77.2338C73.6737 76.4405 72.7218 75.8852 71.8491 75.4092C70.7385 74.8539 69.7073 74.6159 68.676 74.5366C68.5173 74.3779 68.3587 74.3779 68.2 74.3779Z" fill="#2C2C2C"/>
</g>
</svg>
