<svg width="14" height="14" viewBox="0 0 14 14" fill="none" xmlns="http://www.w3.org/2000/svg">
<g opacity="0.6">
<path d="M9.24214 10.0078C9.54417 10.0078 9.78901 9.76292 9.78901 9.46089C9.78901 9.15886 9.54417 8.91402 9.24214 8.91402C8.94011 8.91402 8.69527 9.15886 8.69527 9.46089C8.69527 9.76292 8.94011 10.0078 9.24214 10.0078Z" fill="#324332"/>
<path d="M6.50778 12.9062H2.18749C1.5844 12.9062 1.09374 12.4155 1.09374 11.8124V7.32809C1.09374 6.725 1.5844 6.23434 2.18749 6.23434H10.0624C10.6655 6.23434 11.1562 6.725 11.1562 7.32809V8.42183C11.1562 8.72387 11.401 8.9687 11.7031 8.9687C12.0051 8.9687 12.2499 8.72387 12.2499 8.42183V7.32809C12.2499 6.1219 11.2686 5.1406 10.0624 5.1406H9.40519V3.21194C9.40519 1.44087 7.93323 0 6.12396 0C4.31468 0 2.84272 1.44087 2.84272 3.21194V5.1406H2.18749C0.981307 5.1406 0 6.1219 0 7.32809V11.8124C0 13.0186 0.981307 13.9999 2.18749 13.9999H6.50778C6.80981 13.9999 7.05465 13.7551 7.05465 13.4531C7.05465 13.151 6.80981 12.9062 6.50778 12.9062ZM3.93647 3.21194C3.93647 2.04396 4.91777 1.09374 6.12396 1.09374C7.33014 1.09374 8.31144 2.04396 8.31144 3.21194V5.1406H3.93647V3.21194Z" fill="#324332"/>
<path d="M13.7714 8.90685C13.5258 8.73101 13.1842 8.78758 13.0084 9.03318L10.3129 12.7984C10.2393 12.8838 10.147 12.9022 10.0976 12.9055C10.0469 12.9088 9.94927 12.9024 9.86333 12.8218L8.12132 11.1218C7.90514 10.9108 7.55892 10.9151 7.34799 11.1312C7.13703 11.3474 7.14124 11.6936 7.35742 11.9046L9.10249 13.6075C9.10413 13.6091 9.10574 13.6107 9.10741 13.6123C9.36901 13.8614 9.71821 13.9999 10.0775 13.9999C10.1084 13.9999 10.1393 13.9989 10.1703 13.9968C10.5617 13.9707 10.9271 13.7804 11.1729 13.4746C11.1792 13.4667 11.1853 13.4586 11.1913 13.4504L13.8978 9.66985C14.0736 9.42428 14.017 9.08264 13.7714 8.90685Z" fill="#324332"/>
<path d="M7.16402 10.0078C7.46605 10.0078 7.7109 9.76292 7.7109 9.46089C7.7109 9.15886 7.46605 8.91402 7.16402 8.91402C6.86199 8.91402 6.61715 9.15886 6.61715 9.46089C6.61715 9.76292 6.86199 10.0078 7.16402 10.0078Z" fill="#324332"/>
<path d="M3.06248 10.0078C3.36451 10.0078 3.60936 9.76292 3.60936 9.46089C3.60936 9.15886 3.36451 8.91402 3.06248 8.91402C2.76045 8.91402 2.51561 9.15886 2.51561 9.46089C2.51561 9.76292 2.76045 10.0078 3.06248 10.0078Z" fill="#324332"/>
<path d="M5.11325 10.0078C5.41528 10.0078 5.66013 9.76292 5.66013 9.46089C5.66013 9.15886 5.41528 8.91402 5.11325 8.91402C4.81122 8.91402 4.56638 9.15886 4.56638 9.46089C4.56638 9.76292 4.81122 10.0078 5.11325 10.0078Z" fill="#324332"/>
</g>
</svg>
