<svg width="24" height="24" viewBox="0 0 24 24" fill="none" xmlns="http://www.w3.org/2000/svg">
<rect x="24" y="24" width="24" height="24" transform="rotate(-180 24 24)" fill="#324332"/>
<path d="M0 12C0 5.3725 5.3725 0 12 0C18.6275 0 24 5.3725 24 12C24 18.6275 18.6275 24 12 24C5.3725 24 0 18.6275 0 12Z" fill="#324332"/>
<path d="M23.9991 12.0002C23.9991 11.6953 23.9876 9.79898 23.9652 9.49979L19.9991 5.99989C19.9412 5.91768 16.5766 6.54899 16.4991 6.49991C16.2929 6.36918 15.1773 6.22965 14.4991 6.99979C12.9021 8.81326 11.4622 7.84092 11.2042 8.01523H10.8116L10.1166 7.4L8.4991 9.49982L7.00055 19.9999L10.0436 23.0443C10.4991 23.4999 11.0799 24.0001 11.9991 24.0001C18.6266 24.0001 23.9991 18.6276 23.9991 12.0002Z" fill="#263426"/>
<path d="M3.52081 12.3786C3.52081 12.7523 3.66089 13.1033 3.9176 13.3783C3.59167 13.6622 3.40674 14.0613 3.40674 14.4887C3.40674 15.3136 4.10126 15.9849 4.95508 15.9849H7.9071C7.68152 16.2637 7.41125 16.6537 7.20947 17.1196C6.66876 18.3678 6.70135 19.7332 7.28107 20.1011C7.48743 20.232 7.93475 20.3367 8.61298 19.5666C10.2102 17.7531 12.5373 16.1592 12.7953 15.9849H14.0781V6.75268H5.26709L5.25153 6.75836C4.65167 6.97662 4.24866 7.5393 4.24866 8.15856C4.24866 8.44604 4.3316 8.72106 4.48962 8.96038C4.00165 9.2224 3.6922 9.72466 3.6922 10.2687C3.6922 10.6287 3.82349 10.9701 4.0639 11.241C3.72205 11.5239 3.52081 11.9417 3.52081 12.3786Z" fill="#FFDBA9"/>
<path d="M4.48877 8.96066C4.33075 8.72116 4.24781 8.44595 4.24781 8.15865C4.24781 7.53938 4.65101 6.97632 5.2505 6.75843L5.26606 6.75275H14.0771V11.2219H4.04675C3.81659 10.9543 3.69153 10.6205 3.69153 10.2684C3.69153 9.72477 4.0008 9.22269 4.48877 8.96066Z" fill="#FFC473"/>
<path d="M20.2188 16.6002H13.8826V5.84408H20.2188V16.6002Z" fill="#E4FFDF"/>
<path d="M15.5509 13.9687C15.5509 13.3226 16.0748 12.7989 16.7208 12.7989C17.3669 12.7989 17.8906 13.3226 17.8906 13.9687C17.8906 14.6149 17.3669 15.1386 16.7208 15.1386C16.0748 15.1386 15.5509 14.6149 15.5509 13.9687Z" fill="white"/>
<path d="M20.2188 11.2219H13.8826V5.84393H20.2188V11.2219Z" fill="#74D373"/>
</svg>
