<svg width="24" height="24" viewBox="0 0 24 24" fill="none" xmlns="http://www.w3.org/2000/svg">
<rect width="24" height="24" fill="#324332"/>
<path d="M24 12C24 18.6275 18.6275 24 12 24C5.3725 24 0 18.6275 0 12C0 5.37249 5.3725 0 12 0C18.6275 0 24 5.37249 24 12Z" fill="#324332"/>
<path d="M24 12C24 11.6951 23.9885 11.3928 23.9661 11.0936L16.922 4.09716C16.8642 4.01495 16.7968 3.94793 16.7193 3.89886C16.5132 3.76812 16.0656 3.6632 15.3874 4.43334C13.7904 6.24682 11.4631 7.84075 11.2051 8.01507H10.8125L10.1175 7.39983H3.78125V18.156L9.3257 23.7004C10.1857 23.8962 11.0808 24 12 24C18.6275 24 24 18.6275 24 12Z" fill="#263426"/>
<path d="M20.4792 11.6214C20.4792 11.2477 20.3391 10.8967 20.0824 10.6216C20.4083 10.3378 20.5933 9.93866 20.5933 9.51129C20.5933 8.6864 19.8987 8.01514 19.0449 8.01514H16.0929C16.3185 7.73627 16.5887 7.34626 16.7905 6.88044C17.3312 5.63221 17.2986 4.2668 16.7189 3.89894C16.5126 3.76802 16.0652 3.66328 15.387 4.43342C13.7898 6.24689 11.4627 7.84082 11.2047 8.01514H9.92188V17.2473H18.7329L18.7485 17.2416C19.3483 17.0234 19.7513 16.4607 19.7513 15.8414C19.7513 15.5539 19.6684 15.2789 19.5104 15.0396C19.9984 14.7776 20.3078 14.2753 20.3078 13.7313C20.3078 13.3713 20.1765 13.0298 19.9361 12.759C20.278 12.4761 20.4792 12.0583 20.4792 11.6214Z" fill="#FFDBA9"/>
<path d="M19.5112 15.0394C19.6692 15.2789 19.7522 15.5541 19.7522 15.8414C19.7522 16.4607 19.349 17.0237 18.7495 17.2416L18.7339 17.2473H9.92285V12.7783H19.9532C20.1834 13.0458 20.3085 13.3796 20.3085 13.7317C20.3085 14.2753 19.9992 14.7774 19.5112 15.0394Z" fill="#FFC473"/>
<path d="M3.78125 7.3999H10.1174V18.156H3.78125V7.3999Z" fill="#E4FFDF"/>
<path d="M8.4491 10.0312C8.4491 10.6773 7.92523 11.201 7.27924 11.201C6.63306 11.201 6.10938 10.6773 6.10938 10.0312C6.10938 9.385 6.63306 8.86133 7.27924 8.86133C7.92523 8.86133 8.4491 9.385 8.4491 10.0312Z" fill="white"/>
<path d="M3.78125 12.7781H10.1174V18.1561H3.78125V12.7781Z" fill="#74D373"/>
</svg>
