<svg width="20" height="20" viewBox="0 0 20 20" fill="none" xmlns="http://www.w3.org/2000/svg">
<rect width="20" height="20" fill="#324332"/>
<path d="M20.0001 10.0001C20.0001 9.71443 19.9874 9.43181 19.964 9.1522L15.4255 4.61377L4.61377 15.4255L9.15224 19.964C9.43181 19.9874 9.71443 20.0001 10.0001 20.0001C15.5229 20.0001 20.0001 15.5229 20.0001 10.0001Z" fill="#263426"/>
<path d="M9.99999 2.34375C5.79207 2.34375 2.34375 5.79207 2.34375 9.99999C2.34375 14.2079 5.79207 17.6562 9.99999 17.6562C14.2079 17.6562 17.6562 14.2079 17.6562 9.99999C17.6562 5.79207 14.2079 2.34375 9.99999 2.34375Z" fill="#FF3636"/>
<path d="M17.6562 9.99999C17.6562 14.2079 14.2079 17.6562 10 17.6562V2.34375C14.2079 2.34375 17.6562 5.79207 17.6562 9.99999Z" fill="#F40000"/>
<path d="M11.265 9.99998L13.8042 12.5391L12.5391 13.8042L9.99998 11.265L7.46084 13.8042L6.1958 12.5391L8.73494 9.99998L6.1958 7.46084L7.46084 6.1958L9.99998 8.73494L12.5391 6.1958L13.8042 7.46084L11.265 9.99998Z" fill="#E7E7E7"/>
<path d="M11.265 9.99998L13.8042 12.5391L12.5391 13.8042L10 11.265V8.73494L12.5391 6.1958L13.8042 7.46084L11.265 9.99998Z" fill="#D3D3D8"/>
</svg>
