<svg width="20" height="20" viewBox="0 0 20 20" fill="none" xmlns="http://www.w3.org/2000/svg">
<rect width="20" height="20" fill="#324332"/>
<path d="M20.0001 9.99984C20.0001 9.79242 19.993 9.58668 19.9806 9.38242L15.5054 4.90723L4.37939 14.9648L9.39572 19.9811C9.59572 19.9931 9.79709 19.9998 10.0001 19.9998C15.5229 19.9998 20.0001 15.5227 20.0001 9.99984Z" fill="#263426"/>
<path d="M10 17.5C14.1421 17.5 17.5 14.1421 17.5 10C17.5 5.85786 14.1421 2.5 10 2.5C5.85786 2.5 2.5 5.85786 2.5 10C2.5 14.1421 5.85786 17.5 10 17.5Z" fill="#E4FFDF"/>
<path d="M9.99992 2.5C9.9993 2.5 9.99867 2.5 9.99805 2.5V17.5C9.99867 17.5 9.9993 17.5 9.99992 17.5C14.1421 17.5 17.4999 14.1421 17.4999 10C17.4999 5.85785 14.1421 2.5 9.99992 2.5Z" fill="#74D372"/>
<path d="M8.23314 14.5041L4.91357 11.1845L6.3499 9.7482L8.23314 11.6314L13.6508 6.21387L15.0871 7.65016L8.23314 14.5041Z" fill="#324332"/>
<path d="M13.6503 6.21387L9.99805 9.86613V12.7387L15.0867 7.65016L13.6503 6.21387Z" fill="#263426"/>
</svg>
