<svg width="24" height="14" viewBox="0 0 24 14" fill="none" xmlns="http://www.w3.org/2000/svg">
<path d="M17.1562 12.233C17.1562 12.9449 13.5229 13.5221 9.04102 13.5221C4.55912 13.5221 0.925781 12.9449 0.925781 12.233V10.3535H17.1562V12.233Z" fill="#FFC000"/>
<path d="M9.01172 10.3535V13.522C9.0215 13.522 9.03123 13.5221 9.04102 13.5221C13.5229 13.5221 17.1562 12.9449 17.1562 12.233V10.3535H9.01172Z" fill="#E5AC0A"/>
<path d="M9.04102 11.6426C13.5229 11.6426 17.1562 11.0654 17.1562 10.3535C17.1562 9.64159 13.5229 9.06445 9.04102 9.06445C4.5591 9.06445 0.925781 9.64159 0.925781 10.3535C0.925781 11.0654 4.5591 11.6426 9.04102 11.6426Z" fill="#FFDC00"/>
<path d="M9.04102 9.06445C9.03123 9.06445 9.0215 9.06451 9.01172 9.06451V11.6425C9.0215 11.6425 9.03123 11.6426 9.04102 11.6426C13.5229 11.6426 17.1562 11.0654 17.1562 10.3535C17.1562 9.6416 13.5229 9.06445 9.04102 9.06445Z" fill="#FFC000"/>
<path d="M22.0052 12.416C21.5707 12.98 18.3403 11.2195 14.7901 8.48402C11.2398 5.74852 8.71395 3.07371 9.14848 2.5098L10.2956 1.021L23.1523 10.9273L22.0052 12.416Z" fill="#FFC000"/>
<path d="M16.724 5.97363L14.7285 8.43586C14.7494 8.45197 14.7701 8.46809 14.791 8.4842C18.3412 11.2198 21.5716 12.9802 22.0061 12.4162L23.1532 10.9274L16.724 5.97363Z" fill="#E5AC0A"/>
<path d="M23.1499 10.9259C23.5844 10.362 21.0588 7.68755 17.5089 4.95239C13.959 2.21723 10.729 0.457079 10.2945 1.02097C9.86002 1.58487 12.3856 4.25928 15.9355 6.99443C19.4854 9.72959 22.7154 11.4897 23.1499 10.9259Z" fill="#FFDC00"/>
<path d="M17.5358 4.97168L15.9121 6.97512C15.9208 6.9818 15.9293 6.98848 15.938 6.99516C19.4883 9.73072 22.7186 11.4911 23.1531 10.9271C23.5867 10.3645 21.0733 7.70068 17.5358 4.97168Z" fill="#FFC000"/>
</svg>
