<svg width="20" height="20" viewBox="0 0 20 20" fill="none" xmlns="http://www.w3.org/2000/svg">
<rect width="20" height="20" fill="#324332"/>
<path d="M20.0001 10.0001C20.0001 9.71443 19.9874 9.43181 19.964 9.1522L15.4255 4.61377L4.61377 15.4255L9.15224 19.964C9.43181 19.9874 9.71443 20.0001 10.0001 20.0001C15.5229 20.0001 20.0001 15.5229 20.0001 10.0001Z" fill="#263426"/>
<path d="M9.99999 2.34375C5.79207 2.34375 2.34375 5.79207 2.34375 9.99999C2.34375 14.2079 5.79207 17.6562 9.99999 17.6562C14.2079 17.6562 17.6562 14.2079 17.6562 9.99999C17.6562 5.79207 14.2079 2.34375 9.99999 2.34375Z" fill="#FF3636"/>
<path d="M17.6562 9.99999C17.6562 14.2079 14.2079 17.6562 10 17.6562V2.34375C14.2079 2.34375 17.6562 5.79207 17.6562 9.99999Z" fill="#F40000"/>
<path d="M11.265 9.99998L13.8042 12.5391L12.5391 13.8042L9.99998 11.265L7.46084 13.8042L6.1958 12.5391L8.73494 9.99998L6.1958 7.46084L7.46084 6.1958L9.99998 8.73494L12.5391 6.1958L13.8042 7.46084L11.265 9.99998Z" fill="#E7E7E7"/>
<path d="M11.265 9.99998L13.8042 12.5391L12.5391 13.8042L10 11.265V8.73494L12.5391 6.1958L13.8042 7.46084L11.265 9.99998Z" fill="#D3D3D8"/>
<rect width="20" height="20" fill="#324332"/>
<path d="M20.0001 9.99984C20.0001 9.79242 19.993 9.58668 19.9806 9.38242L15.5054 4.90723L4.37939 14.9648L9.39572 19.9811C9.59572 19.9931 9.79709 19.9998 10.0001 19.9998C15.5229 19.9998 20.0001 15.5227 20.0001 9.99984Z" fill="#263426"/>
<path d="M10 17.5C14.1421 17.5 17.5 14.1421 17.5 10C17.5 5.85786 14.1421 2.5 10 2.5C5.85786 2.5 2.5 5.85786 2.5 10C2.5 14.1421 5.85786 17.5 10 17.5Z" fill="#E4FFDF"/>
<path d="M9.99992 2.5C9.9993 2.5 9.99867 2.5 9.99805 2.5V17.5C9.99867 17.5 9.9993 17.5 9.99992 17.5C14.1421 17.5 17.4999 14.1421 17.4999 10C17.4999 5.85785 14.1421 2.5 9.99992 2.5Z" fill="#74D372"/>
<path d="M8.23314 14.5041L4.91357 11.1845L6.3499 9.7482L8.23314 11.6314L13.6508 6.21387L15.0871 7.65016L8.23314 14.5041Z" fill="#324332"/>
<path d="M13.6503 6.21387L9.99805 9.86613V12.7387L15.0867 7.65016L13.6503 6.21387Z" fill="#263426"/>
<rect width="20" height="20" fill="#324332"/>
<path d="M10.0019 20.0004C15.5239 19.9994 20.0001 15.5226 20.0001 10.0004C20.0001 9.93613 19.9989 9.87226 19.9977 9.80836L15.9169 5.72758L15.0254 6.49199L11.215 2.68164L5.26172 15.2601L10.0019 20.0004Z" fill="#263426"/>
<path d="M14.6006 4.75977L15.9184 5.72771L14.364 7.84409L13.0461 6.87615L14.6006 4.75977Z" fill="#FF7045"/>
<path d="M8.78516 2.68164H11.2151V6.5809H8.78516V2.68164Z" fill="#FF8257"/>
<path d="M10 2.68164H11.215V6.5809H10V2.68164Z" fill="#FF7045"/>
<path d="M9.99998 17.3188C13.5798 17.3188 16.4819 14.4168 16.4819 10.8369C16.4819 7.25703 13.5798 4.35498 9.99998 4.35498C6.42012 4.35498 3.51807 7.25703 3.51807 10.8369C3.51807 14.4168 6.42012 17.3188 9.99998 17.3188Z" fill="#FF432E"/>
<path d="M10 4.35498V17.3188C13.5799 17.3188 16.4819 14.4167 16.4819 10.8369C16.4819 7.25697 13.5799 4.35498 10 4.35498Z" fill="#F24500"/>
<path d="M10 15.9776C12.8391 15.9776 15.1407 13.6761 15.1407 10.837C15.1407 7.99784 12.8391 5.69629 10 5.69629C7.16093 5.69629 4.85938 7.99784 4.85938 10.837C4.85938 13.6761 7.16093 15.9776 10 15.9776Z" fill="white"/>
<path d="M10 5.69629V15.9776C12.8391 15.9776 15.1407 13.6761 15.1407 10.8369C15.1407 7.99785 12.8391 5.69629 10 5.69629Z" fill="#E9EDF5"/>
<path d="M9.27543 11.1579C9.61074 10.8226 13.6001 8.04736 13.6001 8.04736C13.6001 8.04736 10.8249 12.0368 10.4896 12.3721C10.1543 12.7074 9.6107 12.7074 9.27539 12.3721C8.94008 12.0368 8.94012 11.4931 9.27543 11.1579Z" fill="#6E6E6E"/>
<path d="M9.26758 12.3636C9.27027 12.3663 9.27254 12.3694 9.27531 12.3721C9.61063 12.7074 10.1542 12.7074 10.4895 12.3721C10.8248 12.0368 13.6 8.04736 13.6 8.04736L9.26758 12.3636Z" fill="#595959"/>
</svg>
