<svg width="22" height="22" viewBox="0 0 22 22" fill="none" xmlns="http://www.w3.org/2000/svg">
<rect width="21.5494" height="21.5494" fill="#324332"/>
<path d="M13.6881 17.1516C14.9217 17.1516 16.2602 17.59 17.7415 18.9503C17.8899 19.0866 18.0874 18.9172 17.958 18.7479C16.5022 16.843 15.1557 16.4803 13.8128 16.1736C12.1703 15.7985 11.3254 14.8406 10.7366 13.7889C10.6194 13.5797 10.5668 13.6166 10.5563 13.8855C10.5434 14.2145 10.5653 14.6497 10.6363 15.078C10.5701 15.0812 10.5034 15.0803 10.4365 15.0803C8.08654 15.0803 6.18158 13.1061 6.18158 10.6707C6.18158 8.23527 8.08654 6.26097 10.4365 6.26097C12.7863 6.26097 14.6913 8.23527 14.6913 10.6707C14.6913 10.844 14.6831 11.0152 14.6643 11.1833C14.3535 11.1252 13.7421 11.1186 13.3131 11.1571C13.1517 11.1716 13.1744 11.2495 13.2964 11.2724C14.7029 11.5358 15.6692 12.4391 15.8901 14.0785C15.8952 14.1161 15.9428 14.1274 15.9617 14.0949C16.5404 13.0939 16.8729 11.9225 16.8729 10.6707C16.8729 6.98659 13.9912 4 10.4365 4C6.88166 4 4 6.98659 4 10.6707C4 14.3548 6.88166 17.3417 10.4365 17.3417C11.3796 17.3417 12.3151 17.1516 13.6881 17.1516ZM14.1673 14.7297C14.4536 14.9806 14.5407 15.2789 14.3892 15.4893C14.305 15.6046 14.1684 15.6683 14.0049 15.6683C13.8442 15.6683 13.6805 15.6067 13.5669 15.5038C13.3065 15.2681 13.23 14.8857 13.4 14.6685C13.4664 14.5836 13.5743 14.5368 13.7037 14.5368C13.861 14.5368 14.0255 14.6054 14.1673 14.7297ZM15.4885 14.0923C15.5306 14.3847 15.4414 14.5058 15.3519 14.5058C15.2543 14.5058 15.1317 14.3873 14.9871 14.1535C14.8444 13.9226 14.7922 13.6579 14.8629 13.524C14.9096 13.4354 15.0074 13.397 15.1308 13.4453C15.3696 13.5389 15.4634 13.9178 15.4885 14.0923Z" fill="#F57D14"/>
</svg>
