<svg width="22" height="23" viewBox="0 0 22 23" fill="none" xmlns="http://www.w3.org/2000/svg">
<rect y="0.458496" width="21.5494" height="21.5494" fill="#324332"/>
<path d="M10.9667 4C12.0275 3.99955 13.0748 4.24176 14.0308 4.70866C14.177 4.77566 14.3242 4.85584 14.4699 4.93612L13.8306 5.51128L12.872 4.50825L11.2202 5.97909L10.2476 4.92264L7.21031 7.66401L9.1548 9.81684L8.39565 10.4854L10.3142 12.6383L9.55503 13.3064L12.2994 16.3687L13.9236 14.8709L15.3363 16.476C15.0563 16.69 14.7499 16.9044 14.4173 17.0913C13.3672 17.6882 12.1837 18.0011 10.9802 18C7.13007 18 4.00004 14.8581 4.00004 10.994C3.98647 7.15586 7.11699 4 10.9667 4ZM9.68788 10.5657L11.3531 9.06794L12.8453 10.7395L11.1798 12.2371L9.68788 10.5657ZM10.8738 13.4542L12.5255 11.9432L14.0309 13.6146L12.3656 15.1123L10.8738 13.4542ZM8.50293 7.71763L10.1678 6.21983L11.6596 7.89137L9.99439 9.38897L8.50293 7.71763ZM11.5529 6.91501L12.7919 5.79186L13.9111 7.03553L12.6721 8.17196L11.5529 6.91511V6.91501ZM13.7645 12.0633L15.003 10.94L16.1222 12.1966L14.8832 13.3206L13.7645 12.0633ZM14.8566 14.5908L16.0956 13.4675L17.214 14.7109L15.9755 15.8473L14.8566 14.5908ZM15.363 8.81392L16.1888 8.06502L16.9345 8.8944L16.1088 9.643L15.3629 8.81392H15.363ZM14.2971 6.33996L15.1229 5.57788L15.8693 6.42024L15.0428 7.16914L14.2971 6.33996ZM16.415 11.2879L17.2408 10.539L18 11.3681L17.1612 12.1168L16.415 11.2879ZM12.6985 9.42901L13.9376 8.30576L15.0562 9.54913L13.8178 10.6727L12.6985 9.42901Z" fill="#036CB5"/>
</svg>
