<svg width="22" height="22" viewBox="0 0 22 22" fill="none" xmlns="http://www.w3.org/2000/svg">
<rect width="21.5494" height="21.5494" fill="#324332"/>
<path d="M4.66498 9.76293C4.66498 8.92604 4.73513 8.39497 6.46829 7.10118C7.90314 6.0301 12.5024 2.36989 12.5024 2.36989V8.47996H15.9999V17.2739H5.75742C5.1566 17.2739 4.66479 16.7821 4.66479 16.1813L4.66498 9.76293Z" fill="#FCCB06"/>
<path d="M12.5022 8.48012V12.0205L6.0752 16.3989L14.201 13.755V8.48012H12.5022Z" fill="#CFA705"/>
<path d="M9.56527 8.29631C9.94112 7.84847 10.49 7.69038 10.7914 7.94326C11.0928 8.1962 11.0325 8.76435 10.6567 9.21219C10.2811 9.65998 9.73197 9.81791 9.4306 9.56497C9.12919 9.31208 9.18958 8.74409 9.56527 8.29631Z" fill="#231F20"/>
</svg>
